<?xml version="1.0" encoding="UTF-8" standalone="no"?>
<svg
   xmlns:dc="http://purl.org/dc/elements/1.1/"
   xmlns:cc="http://creativecommons.org/ns#"
   xmlns:rdf="http://www.w3.org/1999/02/22-rdf-syntax-ns#"
   xmlns:svg="http://www.w3.org/2000/svg"
   xmlns="http://www.w3.org/2000/svg"
   xmlns:sodipodi="http://sodipodi.sourceforge.net/DTD/sodipodi-0.dtd"
   xmlns:inkscape="http://www.inkscape.org/namespaces/inkscape"
   sodipodi:docname="suzie_q.svg"
   inkscape:version="1.0 (4035a4f, 2020-05-01)"
   id="svg8"
   version="1.1"
   viewBox="0 0 226.32088 60.900608"
   height="60.900608mm"
   width="226.32088mm">
  <defs
     id="defs2" />
  <sodipodi:namedview
     fit-margin-bottom="0"
     fit-margin-right="0"
     fit-margin-left="0"
     fit-margin-top="0"
     inkscape:document-rotation="0"
     inkscape:window-maximized="1"
     inkscape:window-y="0"
     inkscape:window-x="0"
     inkscape:window-height="878"
     inkscape:window-width="1440"
     showgrid="false"
     inkscape:current-layer="layer1"
     inkscape:document-units="mm"
     inkscape:cy="273.52633"
     inkscape:cx="470.3581"
     inkscape:zoom="0.70814112"
     inkscape:pageshadow="2"
     inkscape:pageopacity="0.0"
     borderopacity="1.0"
     bordercolor="#666666"
     pagecolor="#ffffff"
     id="base" />
  <metadata
     id="metadata5">
    <rdf:RDF>
      <cc:Work
         rdf:about="">
        <dc:format>image/svg+xml</dc:format>
        <dc:type
           rdf:resource="http://purl.org/dc/dcmitype/StillImage" />
        <dc:title></dc:title>
      </cc:Work>
    </rdf:RDF>
  </metadata>
  <g
     transform="translate(-0.04725005,-87.859067)"
     id="layer1"
     inkscape:groupmode="layer"
     inkscape:label="Layer 1">
    <path
       id="path931"
       d="m 15.139653,144.87496 c -0.07538,-2.85844 -0.248773,-4.2548 -0.626414,-5.04454 l -0.522182,-1.09199 100.470303,-0.0385 100.47031,-0.0386 -1.23929,1.9658 c -2.28646,3.62684 -5.30859,5.99038 -9.4348,7.37878 -1.54904,0.52121 -8.74194,0.57344 -95.34456,0.69241 l -93.669136,0.12859 z"
       style="fill:#923e40;fill-opacity:1;stroke-width:0.323839" />
    <path
       id="path933"
       d="m 12.564379,137.99539 c -1.067594,-0.70958 -2.8054009,-1.42824 -4.6342959,-1.91649 l -2.926178,-0.7812 -2.102178,-5.16331 -2.10217498,-5.16331 1.00010898,-1.99701 1.000109,-1.99701 28.1661129,-0.0836 28.166115,-0.0836 1.911027,1.83584 c 3.581498,3.44058 8.122949,5.78392 15.089158,7.78584 l 3.565846,1.02475 38.604171,-0.0191 c 28.057,-0.0139 39.4343,-0.12664 41.64257,-0.41257 4.93073,-0.63844 11.85226,-3.23785 16.4136,-6.16423 l 1.90156,-1.21997 14.28415,-0.57301 c 7.85627,-0.31514 18.37775,-0.67976 23.38105,-0.81026 l 9.09692,-0.23728 -0.94991,1.60723 c -0.52244,0.88396 -2.80947,4.70186 -5.0823,8.48421 l -4.13242,6.87698 -100.29246,0.0713 -100.292465,0.0712 z"
       style="fill:#174887;fill-opacity:1;stroke-width:0.318655" />
    <path
       id="path935"
       d="M 142.17787,110.26574 V 89.180742 h 2.32555 c 2.20419,0 2.32569,0.0364 2.32818,0.69766 0.002,0.38372 0.34976,4.32553 0.77404,8.75958 0.67099,7.012338 0.77156,9.641658 0.77256,20.196138 l 0.001,12.13423 -0.69767,0.18696 c -0.38372,0.10284 -1.77905,0.18888 -3.10074,0.19121 l -2.40307,0.004 z"
       style="fill:#da983d;fill-opacity:1;stroke-width:0.310073" />
    <path
       id="path937"
       d="M 92.566089,110.26574 V 89.180742 h 2.29645 2.29646 l 0.18725,1.47285 c 0.10298,0.81006 0.53468,5.19682 0.95931,9.748348 0.65774,7.04999 0.77207,9.95436 0.77207,19.61216 v 11.33665 h -3.25577 -3.25577 z"
       style="fill:#da983d;fill-opacity:1;stroke-width:0.310073" />
    <path
       id="path939"
       d="m 99.023771,121.11832 v -1.24029 h 19.224559 19.22457 v 1.24029 1.2403 H 118.24833 99.023771 Z"
       style="fill:#da983d;fill-opacity:1;stroke-width:0.310073" />
    <path
       id="path941"
       d="m 148.25059,121.11832 v -1.24029 h 19.22456 19.22457 v 1.24029 1.2403 h -19.22457 -19.22456 z"
       style="fill:#da983d;fill-opacity:1;stroke-width:0.310073" />
    <path
       id="path943"
       d="m 135.66632,127.62987 v -3.72089 h 0.77518 0.77519 v 3.72089 3.72088 h -0.77519 -0.77518 z"
       style="fill:#da983d;fill-opacity:1;stroke-width:0.310073" />
    <path
       id="path945"
       d="m 8.5352085,120.59355 c -0.0013,-0.12791 1.6963015,-6.75573 3.7727415,-14.7285 l 3.775339,-14.495944 h 3.358952 3.358954 v 10.697544 10.69754 h 2.32555 2.325552 v -2.9457 -2.9457 h 2.325553 2.325552 v -3.56585 -3.565844 h 2.170515 2.170517 v -3.55994 c 0,-3.44235 0.02305,-3.5647 0.697664,-3.70414 0.383718,-0.0793 3.697629,-0.43809 7.364249,-0.7973 3.666622,-0.35921 7.099411,-0.72723 7.628416,-0.81783 0.855025,-0.14643 1.037902,-0.0358 1.646843,0.99629 l 0.685012,1.161 -1.724361,4.6092 -1.724364,4.609194 v 9.29427 9.29426 H 29.77785 c -11.682023,0 -21.2412125,-0.10465 -21.2426415,-0.23255 z"
       style="fill:#d0d8db;fill-opacity:1;stroke-width:0.310073" />
    <text
       id="text949"
       y="130.61229"
       x="181.0695"
       style="font-style:normal;font-weight:normal;font-size:4.58611px;line-height:1.25;font-family:sans-serif;fill:#000000;fill-opacity:1;stroke:none;stroke-width:0.264583"
       xml:space="preserve"><tspan
         style="font-style:normal;font-variant:normal;font-weight:bold;font-stretch:normal;font-size:4.58611px;font-family:sans-serif;-inkscape-font-specification:'sans-serif Bold';fill:#ffffff;stroke-width:0.264583"
         y="130.61229"
         x="181.0695"
         id="tspan947"
         sodipodi:role="line">SUZIE Q</tspan></text>
    <path
       transform="matrix(0.26458333,0,0,0.26458333,0.04725005,87.859067)"
       id="path991"
       d="m 151.55814,45.702806 v -7.745598 l 5.38445,0.223319 c 2.96145,0.122826 6.49981,0.223832 7.86301,0.224458 l 2.47856,0.0011 v 7.52114 7.521141 h -7.86301 -7.86301 z"
       style="fill:#61c4f0;fill-opacity:1;stroke-width:0.34187" />
    <path
       id="path993"
       d="m 47.868215,101.99641 c -0.802904,-0.0367 -1.505054,-0.0939 -1.560335,-0.12705 -0.06674,-0.04 -0.100515,-0.69684 -0.100515,-1.954496 v -1.894177 h 3.127505 c 2.497318,0 3.121433,0.02337 3.097381,0.11597 -0.01657,0.06378 -0.341402,0.979621 -0.721861,2.035193 l -0.691744,1.91923 -0.845302,-0.014 c -0.464919,-0.008 -1.502225,-0.044 -2.305129,-0.0807 z"
       style="fill:#61c4f0;fill-opacity:1;stroke-width:0.0917938" />
  </g>
</svg>
