<?xml version="1.0" encoding="utf-8"?>
<!-- Generator: Adobe Illustrator 18.1.1, SVG Export Plug-In . SVG Version: 6.00 Build 0)  -->
<svg version="1.1" id="Layer_1" xmlns="http://www.w3.org/2000/svg" xmlns:xlink="http://www.w3.org/1999/xlink" x="0px" y="0px"
	 viewBox="244 0 514 100" enable-background="new 244 0 514 100" xml:space="preserve">
<g id="Фон_xA0_Image_1_">
	<line fill="none" x1="280.3" y1="70.4" x2="367.6" y2="-16.8"/>
	<line fill="none" x1="367.6" y1="-16.8" x2="404.6" y2="70.4"/>
	<line fill="none" x1="367.6" y1="-16.8" x2="280.3" y2="70.4"/>
	<path fill="none" d="M421.7,46.9l-10.4,17.8l-7.5,5.7H280.3c68-0.1,115.4,0,120.9,0.3c0.4,0,1.3,0.1,2.6-0.3
		c4.8-1.1,7.9-5.6,9.9-9.8"/>
</g>
<g id="Слой_1_xA0_Image_1_">
	<g>
		<path d="M427.3,70.6l0.4-4.6c0-0.2,0-0.3,0-0.4c0-0.2-0.1-0.3-0.1-0.3c-0.1-0.1-0.2-0.1-0.4-0.1l0.1-0.2h2.2l-0.1,0.2h-0.1
			c-0.2,0-0.3,0.1-0.4,0.2c-0.1,0.1-0.2,0.3-0.2,0.5l-0.2,2.7l1.6-2.2l0.1-0.5c0-0.1,0-0.2,0-0.3c0-0.2-0.1-0.3-0.1-0.3
			c-0.1-0.1-0.2-0.1-0.4-0.1l0.1-0.2h2.2l-0.1,0.2c-0.2,0-0.4,0.1-0.4,0.2c-0.1,0.1-0.2,0.3-0.2,0.5l-0.2,2.7l1.6-2.1
			c0.3-0.4,0.5-0.6,0.5-0.8c0.1-0.1,0.1-0.2,0.1-0.3c0-0.1-0.1-0.1-0.1-0.2c-0.1-0.1-0.2-0.1-0.4-0.1l0.1-0.2h1.4l-0.1,0.2
			c-0.2,0-0.3,0.1-0.3,0.2c-0.1,0.1-0.3,0.3-0.5,0.5l-3.5,4.7h-0.3l0.3-3.7l-2.6,3.7H427.3z"/>
		<path d="M434.8,69c-0.1,0.2-0.1,0.3-0.1,0.4c0,0.2,0.1,0.4,0.2,0.5c0.1,0.1,0.3,0.2,0.5,0.2s0.4-0.1,0.6-0.2
			c0.2-0.1,0.4-0.3,0.7-0.5l0.1,0.1c-0.3,0.4-0.6,0.6-0.9,0.8c-0.3,0.2-0.6,0.3-1,0.3c-0.5,0-0.8-0.1-0.9-0.3
			c-0.2-0.2-0.3-0.5-0.3-0.8c0-0.5,0.2-0.9,0.4-1.3c0.3-0.5,0.6-0.8,1-1.1c0.5-0.3,0.9-0.4,1.3-0.4c0.2,0,0.4,0.1,0.5,0.2
			c0.1,0.1,0.2,0.3,0.2,0.4c0,0.2-0.1,0.4-0.2,0.6c-0.2,0.3-0.4,0.5-0.6,0.6c-0.3,0.2-0.5,0.3-0.8,0.4
			C435.4,68.9,435.1,68.9,434.8,69z M434.9,68.8c0.3-0.1,0.4-0.1,0.6-0.2c0.2-0.1,0.3-0.2,0.4-0.3s0.3-0.3,0.3-0.5
			c0.1-0.2,0.2-0.4,0.2-0.6c0-0.1,0-0.2-0.1-0.2c-0.1-0.1-0.1-0.1-0.2-0.1c-0.2,0-0.3,0.1-0.4,0.3C435.3,67.6,435,68.1,434.9,68.8z"
			/>
		<path d="M439.8,65l-1.3,4.5c-0.1,0.3-0.1,0.4-0.1,0.5c0,0.1,0,0.1,0.1,0.1l0.1,0.1c0.1,0,0.1,0,0.2-0.1c0.2-0.1,0.3-0.3,0.4-0.5
			l0.2,0.1c-0.3,0.4-0.5,0.7-0.8,0.9c-0.2,0.1-0.4,0.2-0.6,0.2c-0.2,0-0.3-0.1-0.4-0.2c-0.1-0.1-0.2-0.2-0.2-0.4
			c0-0.1,0.1-0.3,0.1-0.5l1.1-3.7c0.1-0.2,0.1-0.4,0.1-0.4c0-0.1-0.1-0.1-0.1-0.2c-0.1-0.1-0.2-0.1-0.4-0.1l0.1-0.2l1.3-0.3
			L439.8,65L439.8,65z"/>
		<path d="M442,65l-1.3,4.5c-0.1,0.3-0.1,0.4-0.1,0.5c0,0.1,0,0.1,0.1,0.1l0.1,0.1c0.1,0,0.1,0,0.2-0.1c0.2-0.1,0.3-0.3,0.4-0.5
			l0.2,0.1c-0.3,0.4-0.5,0.7-0.8,0.9c-0.2,0.1-0.4,0.2-0.6,0.2c-0.2,0-0.3-0.1-0.4-0.2c-0.1-0.1-0.2-0.2-0.2-0.4
			c0-0.1,0.1-0.3,0.1-0.5l1.1-3.7c0.1-0.2,0.1-0.4,0.1-0.4c0-0.1-0.1-0.1-0.1-0.2c-0.1-0.1-0.2-0.1-0.4-0.1l0.1-0.2l1.3-0.3L442,65
			L442,65z"/>
		<path d="M446.4,65l-1.1,3.8l0.9-0.9l0.3-0.3c0.1-0.1,0.2-0.2,0.2-0.3c0-0.1,0.1-0.1,0.1-0.1c0-0.1-0.1-0.1-0.1-0.2
			c-0.1-0.1-0.2-0.1-0.4-0.1l0.1-0.2h1.6l-0.1,0.2c-0.2,0.1-0.4,0.1-0.5,0.2c-0.1,0.1-0.2,0.1-0.4,0.2c-0.2,0.2-0.4,0.3-0.5,0.4
			l-0.2,0.2l0.3,1.1c0.1,0.4,0.2,0.7,0.2,0.8c0.1,0.1,0.1,0.1,0.1,0.1c0.1,0,0.2-0.1,0.4-0.3c0-0.1,0.1-0.1,0.1-0.1l0.2,0.1
			c-0.2,0.4-0.4,0.7-0.7,0.9c-0.2,0.2-0.3,0.2-0.5,0.2s-0.3-0.1-0.4-0.2c-0.1-0.1-0.2-0.4-0.3-0.8l-0.2-0.9l-0.5,0.4l-0.4,1.4h-1
			L445,66c0.1-0.2,0.1-0.3,0.1-0.4c0-0.1,0-0.1-0.1-0.2c-0.1-0.1-0.1-0.1-0.1-0.1c-0.1,0-0.2-0.1-0.3-0.1l0.1-0.2l1.4-0.3L446.4,65
			L446.4,65z"/>
		<path d="M450,66.8l-0.5,1.7c0.3-0.5,0.6-0.9,0.8-1c0.3-0.3,0.5-0.5,0.6-0.6c0.2-0.1,0.4-0.2,0.5-0.2s0.3,0.1,0.4,0.2
			s0.2,0.3,0.2,0.4s-0.1,0.3-0.1,0.6l-0.5,1.7c-0.1,0.2-0.1,0.3-0.1,0.3s0,0.1,0.1,0.1l0.1,0.1c0.1,0,0.1,0,0.1-0.1
			c0.1-0.1,0.2-0.2,0.3-0.3c0-0.1,0.1-0.1,0.1-0.2l0.2,0.1c-0.4,0.7-0.8,1-1.2,1c-0.2,0-0.3-0.1-0.4-0.2c-0.1-0.1-0.2-0.2-0.2-0.3
			c0-0.1,0.1-0.3,0.1-0.5l0.5-1.7c0.1-0.1,0.1-0.2,0.1-0.3s0-0.1-0.1-0.1c0,0-0.1-0.1-0.1-0.1c-0.1,0-0.2,0.1-0.4,0.2
			c-0.4,0.4-0.7,0.9-1.1,1.6l-0.3,1.2h-1l0.8-2.5c0.1-0.3,0.1-0.4,0.1-0.6c0-0.1,0-0.1-0.1-0.1c0-0.1-0.1-0.1-0.1-0.1s-0.2,0-0.3,0
			l0.1-0.2l1.3-0.3L450,66.8L450,66.8z"/>
		<path d="M455.1,66.8c0.2,0,0.4,0.1,0.6,0.2c0.2,0.1,0.3,0.3,0.4,0.4c0.1,0.2,0.2,0.4,0.2,0.6c0,0.4-0.1,0.9-0.4,1.3
			c-0.3,0.4-0.6,0.8-1,1c-0.4,0.3-0.8,0.4-1.2,0.4s-0.7-0.1-0.9-0.3c-0.2-0.2-0.3-0.5-0.3-0.8s0.1-0.7,0.2-1s0.4-0.6,0.6-0.9
			c0.2-0.3,0.5-0.5,0.8-0.6C454.5,66.8,454.8,66.8,455.1,66.8z M454.9,67c-0.2,0-0.3,0.1-0.4,0.1c-0.2,0.2-0.4,0.6-0.6,1.2
			c-0.3,0.6-0.4,1.2-0.4,1.7c0,0.1,0.1,0.2,0.1,0.3s0.2,0.1,0.3,0.1s0.2-0.1,0.3-0.1c0.1-0.1,0.3-0.3,0.5-0.7
			c0.2-0.4,0.3-0.7,0.4-1.1c0.1-0.4,0.2-0.8,0.2-1.1c0-0.2-0.1-0.3-0.1-0.3C455.1,67,455,67,454.9,67z"/>
		<path d="M459.9,66.8l0.3,2.8c0.4-0.4,0.7-0.7,0.8-0.9c0.1-0.3,0.2-0.4,0.2-0.6c0-0.1,0-0.1-0.1-0.2c-0.1-0.1-0.1-0.2-0.2-0.3
			c-0.1-0.1-0.1-0.2-0.2-0.2c0-0.1-0.1-0.1-0.1-0.2c0-0.2,0.1-0.3,0.2-0.4c0.1-0.1,0.2-0.2,0.4-0.2c0.2,0,0.3,0.1,0.4,0.2
			c0.1,0.2,0.2,0.3,0.2,0.5c0,0.3-0.2,0.7-0.4,1.2c-0.3,0.5-0.9,1.2-1.9,2h-0.2l-0.3-2.4l-1.7,2.4h-0.2c0.1-0.8,0.1-1.4,0.1-2.1
			c0-0.4,0-0.7-0.1-0.9c-0.1-0.1-0.1-0.2-0.2-0.3c-0.1-0.1-0.2-0.1-0.2-0.1c-0.1,0-0.1,0-0.2,0v-0.1l1.4-0.4
			c0.1,0.2,0.1,0.4,0.2,0.6c0.1,0.3,0.1,0.6,0.1,1c0,0.2,0,0.4,0,0.6l1.5-2.2L459.9,66.8L459.9,66.8z"/>
		<path d="M464.1,66.8l-0.5,1.7c0.3-0.5,0.6-0.9,0.8-1c0.3-0.3,0.5-0.5,0.6-0.6c0.2-0.1,0.4-0.2,0.5-0.2s0.3,0.1,0.4,0.2
			s0.2,0.3,0.2,0.4s-0.1,0.3-0.1,0.6l-0.5,1.7c-0.1,0.2-0.1,0.3-0.1,0.3s0,0.1,0.1,0.1l0.1,0.1c0.1,0,0.1,0,0.1-0.1
			c0.1-0.1,0.2-0.2,0.3-0.3c0-0.1,0.1-0.1,0.1-0.2l0.2,0.1c-0.4,0.7-0.8,1-1.2,1c-0.2,0-0.3-0.1-0.4-0.2c-0.1-0.1-0.2-0.2-0.2-0.3
			c0-0.1,0.1-0.3,0.1-0.5l0.5-1.7c0.1-0.1,0.1-0.2,0.1-0.3s0-0.1-0.1-0.1c0,0-0.1-0.1-0.1-0.1c-0.1,0-0.2,0.1-0.4,0.2
			c-0.4,0.4-0.7,0.9-1.1,1.6l-0.3,1.2h-1l0.8-2.5c0.1-0.3,0.1-0.4,0.1-0.6c0-0.1,0-0.1-0.1-0.1c0-0.1-0.1-0.1-0.1-0.1s-0.2,0-0.3,0
			l0.1-0.2l1.3-0.3L464.1,66.8L464.1,66.8z"/>
		<path d="M470.6,66.8l-0.8,2.8c-0.1,0.2-0.1,0.3-0.1,0.3s0,0.1,0.1,0.1c0.1,0.1,0.1,0.1,0.1,0.1c0.1,0,0.1,0,0.2-0.1
			c0.1-0.1,0.3-0.3,0.4-0.6l0.2,0.1c-0.4,0.7-0.8,1.1-1.3,1.1c-0.2,0-0.3-0.1-0.4-0.2c-0.1-0.1-0.2-0.2-0.2-0.4c0-0.1,0-0.2,0.1-0.4
			l0.6-1.9c0.1-0.2,0.1-0.3,0.1-0.4c0-0.1-0.1-0.1-0.1-0.2c-0.1-0.1-0.1-0.1-0.2-0.1c-0.1,0-0.1,0-0.2,0l0.1-0.2l1.4-0.2h0.2V66.8z
			 M470.3,65c0.2,0,0.3,0.1,0.4,0.2c0.1,0.1,0.2,0.3,0.2,0.4s-0.1,0.3-0.2,0.4c-0.1,0.1-0.3,0.2-0.4,0.2s-0.3-0.1-0.4-0.2
			c-0.1-0.1-0.2-0.3-0.2-0.4s0.1-0.3,0.2-0.4S470.2,65,470.3,65z"/>
		<path d="M473,66.8l-0.5,1.7c0.3-0.5,0.6-0.9,0.8-1c0.3-0.3,0.5-0.5,0.6-0.6c0.2-0.1,0.4-0.2,0.5-0.2s0.3,0.1,0.4,0.2
			c0.1,0.1,0.2,0.3,0.2,0.4s-0.1,0.3-0.1,0.6l-0.5,1.7c-0.1,0.2-0.1,0.3-0.1,0.3s0,0.1,0.1,0.1l0.1,0.1c0.1,0,0.1,0,0.1-0.1
			c0.1-0.1,0.2-0.2,0.3-0.3c0-0.1,0.1-0.1,0.1-0.2l0.2,0.1c-0.4,0.7-0.8,1-1.2,1c-0.2,0-0.3-0.1-0.4-0.2c-0.1-0.1-0.2-0.2-0.2-0.3
			c0-0.1,0.1-0.3,0.1-0.5l0.5-1.7c0.1-0.1,0.1-0.2,0.1-0.3s0-0.1-0.1-0.1c0,0-0.1-0.1-0.1-0.1c-0.1,0-0.2,0.1-0.4,0.2
			c-0.4,0.4-0.7,0.9-1.1,1.6l-0.3,1.2h-1l0.8-2.5c0.1-0.3,0.1-0.4,0.1-0.6c0-0.1,0-0.1-0.1-0.1c0-0.1-0.1-0.1-0.1-0.1s-0.2,0-0.3,0
			l0.1-0.2l1.3-0.3L473,66.8L473,66.8z"/>
		<path d="M479.7,65.8l-0.3,1.1h0.5l-0.2,0.5h-0.5l-0.7,2.3c-0.1,0.2-0.1,0.3-0.1,0.3s0,0.1,0.1,0.1c0.1,0.1,0.1,0.1,0.1,0.1
			c0.1,0,0.1,0,0.2-0.1c0.1-0.1,0.3-0.3,0.4-0.5l0.2,0.1c-0.2,0.3-0.4,0.6-0.6,0.7c-0.2,0.2-0.5,0.2-0.7,0.2s-0.3-0.1-0.4-0.2
			s-0.2-0.2-0.2-0.4s0.1-0.4,0.1-0.6l0.6-2.1h-0.6l0.1-0.3c0.4-0.1,0.6-0.3,0.9-0.5c0.3-0.2,0.5-0.5,0.9-0.8L479.7,65.8L479.7,65.8z
			"/>
		<path d="M482.3,65l-1,3.6c0.4-0.5,0.6-0.9,0.8-1.1c0.3-0.3,0.5-0.5,0.6-0.6c0.2-0.1,0.4-0.2,0.5-0.2s0.3,0.1,0.4,0.2
			s0.2,0.3,0.2,0.4s-0.1,0.3-0.1,0.6l-0.5,1.7c-0.1,0.2-0.1,0.3-0.1,0.3c0,0,0,0.1,0.1,0.1l0.1,0.1c0.1,0,0.1,0,0.1-0.1
			c0.1-0.1,0.2-0.2,0.3-0.3c0.1-0.1,0.1-0.1,0.1-0.2l0.2,0.1c-0.2,0.4-0.5,0.7-0.7,0.8c-0.2,0.1-0.4,0.2-0.6,0.2
			c-0.2,0-0.3-0.1-0.4-0.2c-0.1-0.1-0.2-0.2-0.2-0.3c0-0.1,0.1-0.3,0.1-0.5l0.5-1.7c0.1-0.1,0.1-0.2,0.1-0.3s0-0.1-0.1-0.1
			c0,0-0.1-0.1-0.1-0.1c-0.1,0-0.2,0.1-0.4,0.3c-0.4,0.3-0.7,0.9-1,1.5l-0.4,1.2h-1l1.3-4.5c0.1-0.2,0.1-0.3,0.1-0.4
			c0-0.1-0.1-0.1-0.1-0.2s-0.2-0.1-0.3-0.1v-0.2l1.3-0.3L482.3,65L482.3,65z"/>
		<path d="M485.4,69c-0.1,0.2-0.1,0.3-0.1,0.4c0,0.2,0.1,0.4,0.2,0.5c0.1,0.1,0.3,0.2,0.5,0.2c0.2,0,0.4-0.1,0.6-0.2
			c0.2-0.1,0.4-0.3,0.7-0.5l0.1,0.1c-0.3,0.4-0.6,0.6-0.9,0.8c-0.3,0.2-0.6,0.3-1,0.3c-0.5,0-0.8-0.1-0.9-0.3
			c-0.2-0.2-0.3-0.5-0.3-0.8c0-0.5,0.2-0.9,0.4-1.3c0.3-0.5,0.6-0.8,1-1.1c0.5-0.3,0.9-0.4,1.3-0.4c0.2,0,0.4,0.1,0.5,0.2
			c0.1,0.1,0.2,0.3,0.2,0.4c0,0.2-0.1,0.4-0.2,0.6c-0.2,0.3-0.4,0.5-0.6,0.6c-0.3,0.2-0.5,0.3-0.8,0.4C486,68.9,485.8,68.9,485.4,69
			z M485.5,68.8c0.3-0.1,0.4-0.1,0.6-0.2c0.2-0.1,0.3-0.2,0.4-0.3c0.1-0.2,0.3-0.3,0.3-0.5c0.1-0.2,0.2-0.4,0.2-0.6
			c0-0.1,0-0.2-0.1-0.2c-0.1-0.1-0.1-0.1-0.2-0.1c-0.2,0-0.3,0.1-0.4,0.3C485.9,67.6,485.7,68.1,485.5,68.8z"/>
		<path d="M495.7,65l-0.4,1.7h-0.2c0-0.5-0.2-0.8-0.4-1.1c-0.2-0.3-0.5-0.4-0.8-0.4c-0.4,0-0.7,0.2-1.1,0.5s-0.7,0.8-0.9,1.4
			c-0.2,0.5-0.3,1-0.3,1.5c0,0.5,0.1,0.8,0.4,1.1c0.2,0.3,0.6,0.4,0.9,0.4c0.3,0,0.6-0.1,0.9-0.2c0.3-0.2,0.5-0.4,0.8-0.7h0.2
			c-0.3,0.5-0.7,0.9-1,1.1c-0.4,0.2-0.8,0.3-1.2,0.3c-0.7,0-1.2-0.2-1.6-0.6c-0.4-0.4-0.6-0.9-0.6-1.5s0.2-1.2,0.5-1.7
			c0.3-0.6,0.8-1,1.4-1.3c0.6-0.4,1.2-0.5,1.8-0.5c0.2,0,0.5,0.1,0.8,0.2c0.2,0.1,0.3,0.1,0.4,0.1c0.2,0,0.3-0.1,0.4-0.2
			C495.5,65,495.7,65,495.7,65z"/>
		<path d="M499.2,66.8l-0.8,2.6l-0.1,0.3c0,0.1,0,0.1,0,0.1s0,0.1,0.1,0.1l0.1,0.1c0.1,0,0.2-0.1,0.3-0.1c0.1-0.1,0.2-0.2,0.3-0.4
			l0.2,0.1c-0.2,0.4-0.4,0.6-0.6,0.8s-0.5,0.3-0.7,0.3c-0.2,0-0.3-0.1-0.4-0.1c-0.1-0.1-0.1-0.2-0.1-0.3c0-0.1,0.1-0.3,0.2-0.6
			l0.1-0.3c-0.3,0.5-0.6,0.9-0.9,1.1c-0.2,0.2-0.4,0.2-0.5,0.2c-0.3,0-0.4-0.1-0.5-0.3c-0.1-0.2-0.2-0.4-0.2-0.7
			c0-0.4,0.1-0.8,0.4-1.3c0.3-0.5,0.5-0.9,0.9-1.2c0.3-0.3,0.6-0.4,0.9-0.4c0.2,0,0.3,0.1,0.4,0.2s0.2,0.3,0.2,0.5l0.2-0.5
			L499.2,66.8z M497.9,67.6c0-0.2-0.1-0.4-0.1-0.5c-0.1-0.1-0.1-0.1-0.2-0.1c-0.1,0-0.2,0.1-0.3,0.1c-0.2,0.2-0.4,0.5-0.6,1
			c-0.2,0.5-0.3,0.9-0.3,1.3c0,0.2,0,0.3,0.1,0.3s0.1,0.1,0.2,0.1c0.1,0,0.3-0.1,0.4-0.2c0.2-0.2,0.4-0.5,0.5-0.7
			C497.8,68.4,497.9,68,497.9,67.6z"/>
		<path d="M501.3,66.8l-0.6,2.2c0.5-1.1,0.9-1.8,1.1-2c0.2-0.2,0.3-0.2,0.5-0.2c0.1,0,0.2,0.1,0.3,0.1c0.1,0.1,0.1,0.2,0.1,0.4
			c0,0.3-0.1,0.5-0.2,0.7c-0.1,0.1-0.2,0.2-0.3,0.2c-0.1,0-0.2-0.1-0.3-0.2c-0.1-0.1-0.1-0.2-0.1-0.2h-0.1c-0.1,0-0.1,0-0.1,0
			c-0.1,0.1-0.2,0.1-0.3,0.3c-0.1,0.1-0.2,0.4-0.4,0.6c-0.2,0.3-0.3,0.6-0.3,0.7c-0.1,0.2-0.2,0.6-0.3,1.2h-1l0.7-2.6
			c0.1-0.2,0.1-0.3,0.1-0.4c0-0.1,0-0.1-0.1-0.2c0-0.1-0.1-0.1-0.1-0.1c-0.1-0.1-0.2-0.1-0.3-0.1l0.1-0.1l1.2-0.3
			C501,66.8,501.3,66.8,501.3,66.8z"/>
		<path d="M504.7,66.8l-0.8,2.8c-0.1,0.2-0.1,0.3-0.1,0.3s0,0.1,0.1,0.1c0,0.1,0.1,0.1,0.1,0.1c0.1,0,0.1,0,0.2-0.1
			c0.1-0.1,0.3-0.3,0.4-0.6l0.2,0.1c-0.4,0.7-0.8,1.1-1.3,1.1c-0.2,0-0.3-0.1-0.4-0.2c-0.1-0.1-0.2-0.2-0.2-0.4c0-0.1,0-0.2,0.1-0.4
			l0.6-1.9c0.1-0.2,0.1-0.3,0.1-0.4c0-0.1-0.1-0.1-0.1-0.2c-0.1-0.1-0.1-0.1-0.2-0.1c-0.1,0-0.1,0-0.2,0l0.1-0.2l1.4-0.2h0.2V66.8z
			 M504.4,65c0.2,0,0.3,0.1,0.4,0.2c0.1,0.1,0.2,0.3,0.2,0.4s-0.1,0.3-0.2,0.4c-0.1,0.1-0.3,0.2-0.4,0.2s-0.3-0.1-0.4-0.2
			c-0.1-0.1-0.2-0.3-0.2-0.4s0.1-0.3,0.2-0.4S504.2,65,504.4,65z"/>
		<path d="M507.4,65l-0.7,2.4c0.2-0.2,0.4-0.4,0.5-0.5c0.1-0.1,0.3-0.1,0.5-0.1c0.3,0,0.6,0.1,0.7,0.4c0.2,0.3,0.3,0.5,0.3,0.8
			c0,0.7-0.3,1.4-0.8,1.9c-0.5,0.5-1,0.8-1.6,0.8c-0.5,0-0.9-0.2-1.4-0.4l1.2-4.2c0.1-0.2,0.1-0.4,0.1-0.4c0-0.1-0.1-0.1-0.1-0.2
			c-0.1-0.1-0.2-0.1-0.4-0.1l0.1-0.2l1.3-0.3L507.4,65L507.4,65z M505.9,70.2c0.1,0.1,0.3,0.1,0.4,0.1c0.2,0,0.3-0.1,0.4-0.1
			c0.2-0.1,0.3-0.3,0.5-0.5c0.2-0.3,0.3-0.5,0.4-0.9c0.1-0.4,0.2-0.7,0.2-1c0-0.2-0.1-0.4-0.2-0.5c-0.1-0.1-0.2-0.2-0.3-0.2
			c-0.2,0-0.4,0.1-0.5,0.3c-0.1,0.1-0.2,0.4-0.3,0.8L505.9,70.2z"/>
		<path d="M511.5,65l-0.7,2.4c0.2-0.2,0.4-0.4,0.5-0.5c0.1-0.1,0.3-0.1,0.5-0.1c0.3,0,0.6,0.1,0.7,0.4c0.2,0.3,0.3,0.5,0.3,0.8
			c0,0.7-0.3,1.4-0.8,1.9c-0.5,0.5-1,0.8-1.6,0.8c-0.5,0-0.9-0.2-1.4-0.4l1.2-4.2c0.1-0.2,0.1-0.4,0.1-0.4c0-0.1-0.1-0.1-0.1-0.2
			c-0.1-0.1-0.2-0.1-0.4-0.1l0.1-0.2l1.3-0.3L511.5,65L511.5,65z M509.9,70.2c0.1,0.1,0.3,0.1,0.4,0.1c0.2,0,0.3-0.1,0.4-0.1
			c0.2-0.1,0.3-0.3,0.5-0.5c0.2-0.3,0.3-0.5,0.4-0.9c0.1-0.4,0.2-0.7,0.2-1c0-0.2-0.1-0.4-0.2-0.5c-0.1-0.1-0.2-0.2-0.3-0.2
			c-0.2,0-0.4,0.1-0.5,0.3c-0.1,0.1-0.2,0.4-0.3,0.8L509.9,70.2z"/>
		<path d="M514.3,69c-0.1,0.2-0.1,0.3-0.1,0.4c0,0.2,0.1,0.4,0.2,0.5c0.1,0.1,0.3,0.2,0.5,0.2s0.4-0.1,0.6-0.2
			c0.2-0.1,0.4-0.3,0.7-0.5l0.1,0.1c-0.3,0.4-0.6,0.6-0.9,0.8c-0.3,0.2-0.6,0.3-1,0.3c-0.5,0-0.8-0.1-0.9-0.3
			c-0.2-0.2-0.3-0.5-0.3-0.8c0-0.5,0.2-0.9,0.4-1.3c0.3-0.5,0.6-0.8,1-1.1c0.5-0.3,0.9-0.4,1.3-0.4c0.2,0,0.4,0.1,0.5,0.2
			c0.1,0.1,0.2,0.3,0.2,0.4c0,0.2-0.1,0.4-0.2,0.6c-0.2,0.3-0.4,0.5-0.6,0.6s-0.5,0.3-0.8,0.4C514.8,68.9,514.6,68.9,514.3,69z
			 M514.3,68.8c0.3-0.1,0.4-0.1,0.6-0.2c0.2-0.1,0.3-0.2,0.4-0.3c0.1-0.2,0.3-0.3,0.3-0.5c0.1-0.2,0.2-0.4,0.2-0.6
			c0-0.1,0-0.2-0.1-0.2c-0.1-0.1-0.1-0.1-0.2-0.1c-0.2,0-0.3,0.1-0.4,0.3C514.7,67.6,514.5,68.1,514.3,68.8z"/>
		<path d="M520.5,66.8l-0.8,2.6l-0.1,0.3c0,0.1,0,0.1,0,0.1s0,0.1,0.1,0.1l0.1,0.1c0.1,0,0.2-0.1,0.3-0.1c0.1-0.1,0.2-0.2,0.3-0.4
			l0.2,0.1c-0.2,0.4-0.4,0.6-0.6,0.8s-0.5,0.3-0.7,0.3c-0.2,0-0.3-0.1-0.4-0.1s-0.1-0.2-0.1-0.3c0-0.1,0.1-0.3,0.2-0.6l0.1-0.3
			c-0.3,0.5-0.6,0.9-0.9,1.1c-0.2,0.2-0.4,0.2-0.5,0.2c-0.3,0-0.4-0.1-0.5-0.3c-0.1-0.2-0.2-0.4-0.2-0.7c0-0.4,0.1-0.8,0.4-1.3
			c0.3-0.5,0.5-0.9,0.9-1.2c0.3-0.3,0.6-0.4,0.9-0.4c0.2,0,0.3,0.1,0.4,0.2c0.1,0.1,0.2,0.3,0.2,0.5l0.2-0.5L520.5,66.8z
			 M519.3,67.6c0-0.2-0.1-0.4-0.1-0.5c-0.1-0.1-0.1-0.1-0.2-0.1s-0.2,0.1-0.3,0.1c-0.2,0.2-0.4,0.5-0.6,1c-0.2,0.5-0.3,0.9-0.3,1.3
			c0,0.2,0,0.3,0.1,0.3c0.1,0.1,0.1,0.1,0.2,0.1c0.1,0,0.3-0.1,0.4-0.2c0.2-0.2,0.4-0.5,0.5-0.7C519.1,68.4,519.3,68,519.3,67.6z"/>
		<path d="M522.9,66.8l-0.5,1.7c0.3-0.5,0.6-0.9,0.8-1c0.3-0.3,0.5-0.5,0.6-0.6s0.4-0.2,0.5-0.2s0.3,0.1,0.4,0.2s0.2,0.3,0.2,0.4
			s-0.1,0.3-0.1,0.6l-0.5,1.7c-0.1,0.2-0.1,0.3-0.1,0.3s0,0.1,0.1,0.1l0.1,0.1c0.1,0,0.1,0,0.1-0.1c0.1-0.1,0.2-0.2,0.3-0.3
			c0-0.1,0.1-0.1,0.1-0.2l0.2,0.1c-0.4,0.7-0.8,1-1.2,1c-0.2,0-0.3-0.1-0.4-0.2c-0.1-0.1-0.2-0.2-0.2-0.3c0-0.1,0.1-0.3,0.1-0.5
			l0.5-1.7c0.1-0.1,0.1-0.2,0.1-0.3s0-0.1-0.1-0.1c0,0-0.1-0.1-0.1-0.1c-0.1,0-0.2,0.1-0.4,0.2c-0.4,0.4-0.7,0.9-1.1,1.6l-0.3,1.2
			h-1l0.8-2.5c0.1-0.3,0.1-0.4,0.1-0.6c0-0.1,0-0.1-0.1-0.1c0-0.1-0.1-0.1-0.1-0.1c-0.1,0-0.2,0-0.3,0l0.1-0.2l1.3-0.3L522.9,66.8
			L522.9,66.8z"/>
		<path d="M529.5,66.8l-0.5,1.7c0.4-0.5,0.6-0.9,0.8-1.1c0.3-0.3,0.4-0.5,0.6-0.5c0.2-0.1,0.3-0.1,0.5-0.1s0.3,0.1,0.4,0.2
			c0.1,0.1,0.1,0.2,0.1,0.4s-0.1,0.3-0.1,0.6l-0.2,0.7c0.4-0.5,0.6-0.9,0.8-1.1c0.3-0.3,0.5-0.5,0.6-0.6c0.1-0.1,0.3-0.1,0.4-0.1
			s0.3,0.1,0.4,0.2c0.1,0.1,0.2,0.2,0.2,0.4s-0.1,0.4-0.1,0.7l-0.5,1.5c-0.1,0.2-0.1,0.4-0.1,0.4c0,0,0,0.1,0.1,0.1l0.1,0.1
			c0.1,0,0.1,0,0.1-0.1c0.1-0.1,0.2-0.2,0.3-0.4c0-0.1,0.1-0.1,0.1-0.2l0.2,0.1c-0.2,0.4-0.4,0.6-0.6,0.8c-0.2,0.2-0.4,0.3-0.6,0.3
			c-0.2,0-0.3-0.1-0.4-0.2s-0.2-0.2-0.2-0.3c0-0.1,0.1-0.3,0.1-0.5l0.5-1.6c0.1-0.2,0.1-0.4,0.1-0.4c0,0,0-0.1-0.1-0.1h-0.1
			c-0.1,0-0.1,0-0.1,0c-0.1,0.1-0.2,0.1-0.3,0.2c-0.1,0.1-0.3,0.3-0.5,0.6c-0.2,0.3-0.4,0.5-0.4,0.7s-0.2,0.4-0.2,0.6l-0.3,0.8h-1
			l0.8-2.6c0.1-0.2,0.1-0.3,0.1-0.3c0,0,0-0.1-0.1-0.1h-0.1c-0.1,0-0.3,0.2-0.5,0.4c-0.3,0.4-0.6,0.9-0.9,1.4l-0.3,1.2h-1l0.8-2.5
			c0.1-0.3,0.1-0.4,0.1-0.6c0-0.1,0-0.1-0.1-0.1s-0.1-0.1-0.1-0.1c-0.1,0-0.2,0-0.3,0l0.1-0.2l1.4-0.3L529.5,66.8L529.5,66.8z"/>
		<path d="M537.6,66.8l-0.8,2.6l-0.1,0.3c0,0.1,0,0.1,0,0.1s0,0.1,0.1,0.1l0.1,0.1c0.1,0,0.2-0.1,0.3-0.1c0.1-0.1,0.2-0.2,0.3-0.4
			l0.2,0.1c-0.2,0.4-0.4,0.6-0.6,0.8s-0.5,0.3-0.7,0.3c-0.2,0-0.3-0.1-0.4-0.1s-0.1-0.2-0.1-0.3c0-0.1,0.1-0.3,0.2-0.6l0.1-0.3
			c-0.3,0.5-0.6,0.9-0.9,1.1c-0.2,0.2-0.4,0.2-0.5,0.2c-0.3,0-0.4-0.1-0.5-0.3c-0.1-0.2-0.2-0.4-0.2-0.7c0-0.4,0.1-0.8,0.4-1.3
			c0.3-0.5,0.5-0.9,0.9-1.2c0.3-0.3,0.6-0.4,0.9-0.4c0.2,0,0.3,0.1,0.4,0.2c0.1,0.1,0.2,0.3,0.2,0.5l0.2-0.5L537.6,66.8z
			 M536.3,67.6c0-0.2-0.1-0.4-0.1-0.5c-0.1-0.1-0.1-0.1-0.2-0.1s-0.2,0.1-0.3,0.1c-0.2,0.2-0.4,0.5-0.6,1c-0.2,0.5-0.3,0.9-0.3,1.3
			c0,0.2,0,0.3,0.1,0.3c0.1,0.1,0.1,0.1,0.2,0.1c0.1,0,0.3-0.1,0.4-0.2c0.2-0.2,0.4-0.5,0.5-0.7C536.1,68.4,536.3,68,536.3,67.6z"/>
		<path d="M539.6,66.8L539,69c0.5-1.1,0.9-1.8,1.1-2c0.2-0.2,0.3-0.2,0.5-0.2c0.1,0,0.2,0.1,0.3,0.1c0.1,0.1,0.1,0.2,0.1,0.4
			c0,0.3-0.1,0.5-0.2,0.7c-0.1,0.1-0.2,0.2-0.3,0.2s-0.2-0.1-0.3-0.2c-0.1-0.1-0.1-0.2-0.1-0.2h-0.1c-0.1,0-0.1,0-0.1,0
			c-0.1,0.1-0.2,0.1-0.3,0.3c-0.1,0.1-0.2,0.4-0.4,0.6c-0.2,0.3-0.3,0.6-0.3,0.7c-0.1,0.2-0.2,0.6-0.3,1.2h-1l0.7-2.6
			c0.1-0.2,0.1-0.3,0.1-0.4c0-0.1,0-0.1-0.1-0.2c0-0.1-0.1-0.1-0.1-0.1c-0.1,0-0.2-0.1-0.3-0.1l0.1-0.1l1.2-0.3
			C539.4,66.8,539.6,66.8,539.6,66.8z"/>
		<path d="M543.6,65l-1.1,3.8l0.9-0.9l0.3-0.3c0.1-0.1,0.2-0.2,0.2-0.3c0-0.1,0.1-0.1,0.1-0.1c0-0.1-0.1-0.1-0.1-0.2
			c-0.1-0.1-0.2-0.1-0.4-0.1l0.1-0.2h1.6L545,67c-0.2,0.1-0.4,0.1-0.5,0.2c-0.1,0.1-0.2,0.1-0.4,0.2c-0.2,0.2-0.4,0.3-0.5,0.4
			l-0.2,0.2l0.3,1.1c0.1,0.4,0.2,0.7,0.2,0.8c0.1,0.1,0.1,0.1,0.1,0.1c0.1,0,0.2-0.1,0.4-0.3c0-0.1,0.1-0.1,0.1-0.1l0.2,0.1
			c-0.2,0.4-0.4,0.7-0.7,0.9c-0.2,0.2-0.3,0.2-0.5,0.2c-0.2,0-0.3-0.1-0.4-0.2c-0.1-0.1-0.2-0.4-0.3-0.8l-0.2-0.9l-0.5,0.4l-0.4,1.4
			h-1l1.3-4.5c0.1-0.2,0.1-0.3,0.1-0.4c0-0.1,0-0.1-0.1-0.2c-0.1-0.1-0.1-0.1-0.1-0.1c-0.1,0-0.2-0.1-0.3-0.1l0.1-0.2l1.4-0.3
			L543.6,65L543.6,65z"/>
		<path d="M546.3,69c-0.1,0.2-0.1,0.3-0.1,0.4c0,0.2,0.1,0.4,0.2,0.5c0.1,0.1,0.3,0.2,0.5,0.2c0.2,0,0.4-0.1,0.6-0.2
			c0.2-0.1,0.4-0.3,0.7-0.5l0.1,0.1c-0.3,0.4-0.6,0.6-0.9,0.8c-0.3,0.2-0.6,0.3-1,0.3c-0.5,0-0.8-0.1-0.9-0.3
			c-0.2-0.2-0.3-0.5-0.3-0.8c0-0.5,0.2-0.9,0.4-1.3c0.3-0.5,0.6-0.8,1-1.1c0.5-0.3,0.9-0.4,1.3-0.4c0.2,0,0.4,0.1,0.5,0.2
			c0.1,0.1,0.2,0.3,0.2,0.4c0,0.2-0.1,0.4-0.2,0.6c-0.2,0.3-0.4,0.5-0.6,0.6c-0.2,0.2-0.5,0.3-0.8,0.4
			C546.9,68.9,546.6,68.9,546.3,69z M546.3,68.8c0.3-0.1,0.4-0.1,0.6-0.2c0.2-0.1,0.3-0.2,0.4-0.3c0.1-0.2,0.3-0.3,0.3-0.5
			c0.1-0.2,0.2-0.4,0.2-0.6c0-0.1,0-0.2-0.1-0.2c-0.1-0.1-0.1-0.1-0.2-0.1c-0.2,0-0.3,0.1-0.4,0.3C546.7,67.6,546.5,68.1,546.3,68.8
			z"/>
		<path d="M550.9,65.8l-0.3,1.1h0.5l-0.2,0.5h-0.5l-0.7,2.3c-0.1,0.2-0.1,0.3-0.1,0.3s0,0.1,0.1,0.1c0,0.1,0.1,0.1,0.1,0.1
			c0.1,0,0.1,0,0.2-0.1c0.1-0.1,0.3-0.3,0.4-0.5l0.2,0.1c-0.2,0.3-0.4,0.6-0.6,0.7c-0.2,0.2-0.5,0.2-0.7,0.2c-0.2,0-0.3-0.1-0.4-0.2
			s-0.2-0.2-0.2-0.4s0.1-0.4,0.1-0.6l0.6-2.1H549l0.1-0.3c0.4-0.1,0.6-0.3,0.9-0.5c0.3-0.2,0.5-0.5,0.9-0.8L550.9,65.8L550.9,65.8z"
			/>
		<path d="M555.1,67.3l-0.5,1.8c-0.2,0.9-0.4,1.5-0.7,1.9c-0.2,0.4-0.5,0.7-0.7,0.9c-0.3,0.2-0.6,0.3-1,0.3c-0.2,0-0.4-0.1-0.5-0.2
			c-0.1-0.1-0.2-0.2-0.2-0.3c0-0.1,0.1-0.2,0.2-0.3c0.1-0.1,0.2-0.1,0.4-0.1c0.1,0,0.2,0.1,0.3,0.1c0.1,0.1,0.1,0.2,0.1,0.3
			s0,0.2-0.1,0.2c-0.1,0.1-0.1,0.1-0.1,0.1l0,0h0.1c0.1,0,0.2,0,0.2-0.1c0.2-0.1,0.3-0.3,0.3-0.5c0.1-0.1,0.2-0.5,0.3-1l0.8-3.2
			h-0.6l0.2-0.5c0.2,0,0.4,0,0.5-0.1c0.1-0.1,0.2-0.2,0.3-0.4c0.3-0.6,0.6-0.9,0.9-1.2c0.3-0.3,0.7-0.4,1.1-0.4
			c0.3,0,0.5,0.1,0.6,0.2c0.1,0.1,0.2,0.2,0.2,0.4c0,0.2-0.1,0.3-0.1,0.3c-0.1,0.1-0.2,0.1-0.3,0.1c-0.1,0-0.2-0.1-0.3-0.1
			c-0.1-0.1-0.1-0.2-0.1-0.3c0-0.1,0-0.2,0.1-0.2c0.1-0.1,0.1-0.1,0.1-0.2c0-0.1,0-0.1-0.1-0.1c0,0-0.1-0.1-0.1-0.1
			c-0.2,0-0.3,0.1-0.5,0.3c-0.3,0.3-0.5,0.8-0.7,1.5h0.6l-0.2,0.5C555.5,67.3,555.1,67.3,555.1,67.3z"/>
		<path d="M558.3,66.8c0.2,0,0.4,0.1,0.6,0.2s0.3,0.3,0.4,0.4s0.2,0.4,0.2,0.6c0,0.4-0.1,0.9-0.4,1.3s-0.6,0.8-1,1
			c-0.4,0.3-0.8,0.4-1.2,0.4c-0.4,0-0.7-0.1-0.9-0.3c-0.2-0.2-0.3-0.5-0.3-0.8s0.1-0.7,0.2-1c0.2-0.3,0.4-0.6,0.6-0.9
			c0.2-0.3,0.5-0.5,0.8-0.6C557.6,66.9,558,66.8,558.3,66.8z M558.2,67c-0.2,0-0.3,0.1-0.4,0.1c-0.2,0.2-0.4,0.6-0.6,1.2
			c-0.3,0.6-0.4,1.2-0.4,1.7c0,0.1,0.1,0.2,0.1,0.3c0.1,0.1,0.2,0.1,0.3,0.1c0.1,0,0.2-0.1,0.3-0.1c0.1-0.1,0.3-0.3,0.5-0.7
			c0.2-0.4,0.3-0.7,0.4-1.1c0.1-0.4,0.2-0.8,0.2-1.1c0-0.2-0.1-0.3-0.1-0.3C558.3,67,558.3,67,558.2,67z"/>
		<path d="M561.7,66.8l-0.6,2.2c0.5-1.1,0.9-1.8,1.1-2c0.2-0.2,0.3-0.2,0.5-0.2c0.1,0,0.2,0.1,0.3,0.1c0.1,0.1,0.1,0.2,0.1,0.4
			c0,0.3-0.1,0.5-0.2,0.7c-0.1,0.1-0.2,0.2-0.3,0.2s-0.2-0.1-0.3-0.2c-0.1-0.1-0.1-0.2-0.1-0.2h-0.1c-0.1,0-0.1,0-0.1,0
			c-0.1,0.1-0.2,0.1-0.3,0.3c-0.1,0.1-0.2,0.4-0.4,0.6c-0.2,0.3-0.3,0.6-0.3,0.7c-0.1,0.2-0.2,0.6-0.3,1.2h-1l0.7-2.6
			c0.1-0.2,0.1-0.3,0.1-0.4c0-0.1,0-0.1-0.1-0.2c0-0.1-0.1-0.1-0.1-0.1c-0.1,0-0.2-0.1-0.3-0.1l0.1-0.1l1.2-0.3
			C561.4,66.8,561.7,66.8,561.7,66.8z"/>
		<path d="M567.1,66.8l-0.5,1.7c0.3-0.5,0.6-0.9,0.8-1c0.3-0.3,0.5-0.5,0.6-0.6s0.4-0.2,0.5-0.2s0.3,0.1,0.4,0.2
			c0.1,0.1,0.2,0.3,0.2,0.4s-0.1,0.3-0.1,0.6l-0.5,1.7c-0.1,0.2-0.1,0.3-0.1,0.3s0,0.1,0.1,0.1l0.1,0.1c0.1,0,0.1,0,0.1-0.1
			c0.1-0.1,0.2-0.2,0.3-0.3c0-0.1,0.1-0.1,0.1-0.2l0.2,0.1c-0.4,0.7-0.8,1-1.2,1c-0.2,0-0.3-0.1-0.4-0.2c-0.1-0.1-0.2-0.2-0.2-0.3
			c0-0.1,0.1-0.3,0.1-0.5l0.5-1.7c0.1-0.1,0.1-0.2,0.1-0.3s0-0.1-0.1-0.1c0,0-0.1-0.1-0.1-0.1c-0.1,0-0.2,0.1-0.4,0.2
			c-0.4,0.4-0.7,0.9-1.1,1.6l-0.3,1.2h-1l0.8-2.5c0.1-0.3,0.1-0.4,0.1-0.6c0-0.1,0-0.1-0.1-0.1c0-0.1-0.1-0.1-0.1-0.1
			c-0.1,0-0.2,0-0.3,0l0.1-0.2l1.3-0.3L567.1,66.8L567.1,66.8z"/>
		<path d="M570.8,69c-0.1,0.2-0.1,0.3-0.1,0.4c0,0.2,0.1,0.4,0.2,0.5c0.1,0.1,0.3,0.2,0.5,0.2s0.4-0.1,0.6-0.2
			c0.2-0.1,0.4-0.3,0.7-0.5l0.1,0.1c-0.3,0.4-0.6,0.6-0.9,0.8c-0.3,0.2-0.6,0.3-1,0.3c-0.5,0-0.8-0.1-0.9-0.3
			c-0.2-0.2-0.3-0.5-0.3-0.8c0-0.5,0.2-0.9,0.4-1.3c0.3-0.5,0.6-0.8,1-1.1c0.5-0.3,0.9-0.4,1.3-0.4c0.2,0,0.4,0.1,0.5,0.2
			c0.1,0.1,0.2,0.3,0.2,0.4c0,0.2-0.1,0.4-0.2,0.6c-0.2,0.3-0.4,0.5-0.6,0.6c-0.2,0.2-0.5,0.3-0.8,0.4
			C571.3,68.9,571.1,68.9,570.8,69z M570.8,68.8c0.3-0.1,0.4-0.1,0.6-0.2c0.2-0.1,0.3-0.2,0.4-0.3s0.3-0.3,0.3-0.5
			c0.1-0.2,0.2-0.4,0.2-0.6c0-0.1,0-0.2-0.1-0.2C572.1,67,572,67,572,67c-0.2,0-0.3,0.1-0.4,0.3C571.2,67.6,571,68.1,570.8,68.8z"/>
		<path d="M577,66.8l-0.8,2.6l-0.1,0.3c0,0.1,0,0.1,0,0.1s0,0.1,0.1,0.1l0.1,0.1c0.1,0,0.2-0.1,0.3-0.1c0.1-0.1,0.2-0.2,0.3-0.4
			l0.2,0.1c-0.2,0.4-0.4,0.6-0.6,0.8s-0.5,0.3-0.7,0.3c-0.2,0-0.3-0.1-0.4-0.1s-0.1-0.2-0.1-0.3c0-0.1,0.1-0.3,0.2-0.6l0.1-0.3
			c-0.3,0.5-0.6,0.9-0.9,1.1c-0.2,0.2-0.4,0.2-0.5,0.2c-0.3,0-0.4-0.1-0.5-0.3c-0.1-0.2-0.2-0.4-0.2-0.7c0-0.4,0.1-0.8,0.4-1.3
			c0.3-0.5,0.5-0.9,0.9-1.2c0.3-0.3,0.6-0.4,0.9-0.4c0.2,0,0.3,0.1,0.4,0.2c0.1,0.1,0.2,0.3,0.2,0.5l0.2-0.5L577,66.8z M575.8,67.6
			c0-0.2-0.1-0.4-0.1-0.5c-0.1-0.1-0.1-0.1-0.2-0.1s-0.2,0.1-0.3,0.1c-0.2,0.2-0.4,0.5-0.6,1c-0.2,0.5-0.3,0.9-0.3,1.3
			c0,0.2,0,0.3,0.1,0.3c0.1,0.1,0.1,0.1,0.2,0.1c0.1,0,0.3-0.1,0.4-0.2c0.2-0.2,0.4-0.5,0.5-0.7C575.7,68.4,575.8,68,575.8,67.6z"/>
		<path d="M579.1,66.8l-0.6,2.2c0.5-1.1,0.9-1.8,1.1-2c0.2-0.2,0.3-0.2,0.5-0.2c0.1,0,0.2,0.1,0.3,0.1c0.1,0.1,0.1,0.2,0.1,0.4
			c0,0.3-0.1,0.5-0.2,0.7c-0.1,0.1-0.2,0.2-0.3,0.2s-0.2-0.1-0.3-0.2c-0.1-0.1-0.1-0.2-0.1-0.2h-0.1c-0.1,0-0.1,0-0.1,0
			c-0.1,0.1-0.2,0.1-0.3,0.3c-0.1,0.1-0.2,0.4-0.4,0.6c-0.2,0.3-0.3,0.6-0.3,0.7c-0.1,0.2-0.2,0.6-0.3,1.2h-1l0.7-2.6
			c0.1-0.2,0.1-0.3,0.1-0.4c0-0.1,0-0.1-0.1-0.2c0-0.1-0.1-0.1-0.1-0.1c-0.1,0-0.2-0.1-0.3-0.1l0.1-0.1l1.2-0.3
			C578.9,66.8,579.1,66.8,579.1,66.8z"/>
		<path d="M583,65l-1.3,4.5c-0.1,0.3-0.1,0.4-0.1,0.5c0,0.1,0,0.1,0.1,0.1l0.1,0.1c0.1,0,0.1,0,0.2-0.1c0.2-0.1,0.3-0.3,0.4-0.5
			l0.2,0.1c-0.3,0.4-0.5,0.7-0.8,0.9c-0.2,0.1-0.4,0.2-0.6,0.2c-0.2,0-0.3-0.1-0.4-0.2c-0.1-0.1-0.2-0.2-0.2-0.4
			c0-0.1,0.1-0.3,0.1-0.5l1.1-3.7c0.1-0.2,0.1-0.4,0.1-0.4c0-0.1-0.1-0.1-0.1-0.2c-0.1-0.1-0.2-0.1-0.4-0.1l0.1-0.2l1.3-0.3L583,65
			L583,65z"/>
		<path d="M582.9,67.1l1.2-0.4c0.1,0.1,0.2,0.3,0.2,0.4c0.1,0.2,0.1,0.5,0.2,0.8c0.1,0.7,0.1,1.4,0.1,2.1c0.3-0.4,0.6-0.9,1-1.5
			c0.1-0.2,0.2-0.4,0.2-0.5c0-0.1-0.1-0.2-0.2-0.3c-0.2-0.1-0.2-0.2-0.3-0.2c-0.1-0.1-0.1-0.1-0.1-0.2c0-0.2,0.1-0.3,0.2-0.4
			c0.1-0.1,0.2-0.2,0.4-0.2s0.3,0.1,0.4,0.2c0.1,0.1,0.2,0.3,0.2,0.4c0,0.2-0.1,0.4-0.2,0.6c-0.1,0.3-0.4,0.7-0.7,1.2
			c-0.5,0.7-0.9,1.4-1.4,1.9c-0.3,0.4-0.5,0.6-0.7,0.7c-0.2,0.1-0.4,0.3-0.6,0.4c-0.1,0.1-0.2,0.1-0.4,0.1s-0.3-0.1-0.4-0.2
			s-0.2-0.3-0.2-0.4c0-0.2,0.1-0.3,0.2-0.4c0.1-0.1,0.2-0.2,0.4-0.2s0.3,0.1,0.5,0.3c0.1,0.1,0.2,0.2,0.2,0.2s0.1,0,0.2-0.1
			c0.1-0.1,0.2-0.2,0.4-0.3c0-0.4,0-0.6,0-0.8c0-0.3,0-0.6-0.1-1l-0.1-1.5c0-0.3-0.1-0.5-0.2-0.6C583.1,67.2,583,67.2,582.9,67.1
			c-0.1,0.1-0.1,0.1-0.2,0.1v-0.1H582.9z"/>
		<path d="M591.2,70.4h-2.9v-0.2c0.8-0.7,1.4-1.3,1.9-1.9c0.4-0.5,0.7-0.9,0.8-1.1c0.1-0.3,0.2-0.5,0.2-0.8s-0.1-0.5-0.2-0.6
			c-0.2-0.2-0.4-0.2-0.6-0.2c-0.4,0-0.7,0.2-1,0.6l-0.2-0.1c0.2-0.4,0.3-0.7,0.6-0.9c0.3-0.3,0.7-0.4,1.1-0.4s0.7,0.1,1,0.4
			c0.3,0.3,0.4,0.5,0.4,0.8c0,0.3-0.1,0.6-0.2,0.8c-0.2,0.3-0.4,0.6-0.8,1c-0.3,0.3-0.9,0.9-1.8,1.6h1c0.4,0,0.6-0.1,0.7-0.1
			c0.2-0.1,0.3-0.2,0.4-0.5h0.2L591.2,70.4z"/>
		<path d="M595.3,65c0.3,0,0.5,0.1,0.7,0.2c0.2,0.2,0.3,0.4,0.4,0.6c0.1,0.3,0.1,0.5,0.1,0.8c0,0.4-0.1,0.9-0.2,1.3
			c-0.1,0.5-0.3,0.9-0.5,1.2c-0.2,0.4-0.4,0.7-0.7,1c-0.2,0.2-0.4,0.3-0.6,0.4c-0.2,0.1-0.5,0.2-0.7,0.2s-0.4-0.1-0.6-0.2
			c-0.2-0.2-0.3-0.3-0.4-0.6c-0.1-0.3-0.2-0.5-0.2-0.8c0-0.6,0.1-1.2,0.4-1.8c0.2-0.5,0.4-1,0.7-1.3c0.3-0.4,0.5-0.6,0.8-0.8
			C594.8,65,595.1,65,595.3,65z M595.3,65.2c-0.1,0-0.2,0-0.2,0.1c-0.1,0.1-0.1,0.1-0.2,0.2c-0.1,0.1-0.2,0.3-0.3,0.6
			c-0.2,0.6-0.4,1.2-0.6,2c-0.2,0.6-0.3,1-0.3,1.2c-0.1,0.3-0.1,0.5-0.1,0.7c0,0.2,0.1,0.3,0.1,0.3c0.1,0.1,0.2,0.1,0.3,0.1
			c0.1,0,0.2-0.1,0.3-0.1c0.2-0.1,0.3-0.3,0.4-0.6c0.2-0.7,0.5-1.6,0.8-2.7c0.2-0.5,0.2-0.9,0.2-1.2c0-0.2-0.1-0.3-0.1-0.3
			C595.5,65.3,595.4,65.2,595.3,65.2z"/>
		<path d="M598.8,67.1l1.2-0.4c0.1,0.1,0.2,0.3,0.2,0.4c0.1,0.2,0.1,0.5,0.2,0.8c0.1,0.7,0.1,1.4,0.1,2.1c0.3-0.4,0.6-0.9,1-1.5
			c0.1-0.2,0.2-0.4,0.2-0.5c0-0.1-0.1-0.2-0.2-0.3c-0.2-0.1-0.2-0.2-0.3-0.2c-0.1-0.1-0.1-0.1-0.1-0.2c0-0.2,0.1-0.3,0.2-0.4
			c0.1-0.1,0.2-0.2,0.4-0.2s0.3,0.1,0.4,0.2c0.1,0.1,0.2,0.3,0.2,0.4c0,0.2-0.1,0.4-0.2,0.6c-0.1,0.3-0.4,0.7-0.7,1.2
			c-0.5,0.7-0.9,1.4-1.4,1.9c-0.3,0.4-0.5,0.6-0.7,0.7c-0.2,0.1-0.4,0.3-0.6,0.4c-0.1,0.1-0.2,0.1-0.4,0.1s-0.3-0.1-0.4-0.2
			s-0.2-0.3-0.2-0.4c0-0.2,0.1-0.3,0.2-0.4c0.1-0.1,0.2-0.2,0.4-0.2s0.3,0.1,0.5,0.3c0.1,0.1,0.2,0.2,0.2,0.2c0.1,0,0.1,0,0.2-0.1
			c0.1-0.1,0.2-0.2,0.4-0.3c0-0.4,0-0.6,0-0.8c0-0.3,0-0.6-0.1-1l-0.1-1.5c0-0.3-0.1-0.5-0.2-0.6C599,67.2,598.9,67.2,598.8,67.1
			c-0.1,0.1-0.1,0.1-0.2,0.1v-0.1H598.8z"/>
		<path d="M603.4,69c-0.1,0.2-0.1,0.3-0.1,0.4c0,0.2,0.1,0.4,0.2,0.5c0.1,0.1,0.3,0.2,0.5,0.2c0.2,0,0.4-0.1,0.6-0.2
			c0.2-0.1,0.4-0.3,0.7-0.5l0.1,0.1c-0.3,0.4-0.6,0.6-0.9,0.8c-0.3,0.2-0.6,0.3-1,0.3c-0.5,0-0.8-0.1-0.9-0.3
			c-0.2-0.2-0.3-0.5-0.3-0.8c0-0.5,0.2-0.9,0.4-1.3c0.3-0.5,0.6-0.8,1-1.1c0.5-0.3,0.9-0.4,1.3-0.4c0.2,0,0.4,0.1,0.5,0.2
			c0.1,0.1,0.2,0.3,0.2,0.4c0,0.2-0.1,0.4-0.2,0.6c-0.2,0.3-0.4,0.5-0.6,0.6c-0.2,0.2-0.5,0.3-0.8,0.4C604,68.9,603.8,68.9,603.4,69
			z M603.5,68.8c0.3-0.1,0.4-0.1,0.6-0.2c0.2-0.1,0.3-0.2,0.4-0.3s0.3-0.3,0.3-0.5c0.1-0.2,0.2-0.4,0.2-0.6c0-0.1,0-0.2-0.1-0.2
			c-0.1-0.1-0.1-0.1-0.2-0.1c-0.2,0-0.3,0.1-0.4,0.3C603.9,67.6,603.7,68.1,603.5,68.8z"/>
		<path d="M609.7,66.8l-0.8,2.6l-0.1,0.3c0,0.1,0,0.1,0,0.1s0,0.1,0.1,0.1l0.1,0.1c0.1,0,0.2-0.1,0.3-0.1c0.1-0.1,0.2-0.2,0.3-0.4
			l0.2,0.1c-0.2,0.4-0.4,0.6-0.6,0.8c-0.2,0.2-0.5,0.3-0.7,0.3c-0.2,0-0.3-0.1-0.4-0.1s-0.1-0.2-0.1-0.3c0-0.1,0.1-0.3,0.2-0.6
			l0.1-0.3c-0.3,0.5-0.6,0.9-0.9,1.1c-0.2,0.2-0.4,0.2-0.5,0.2c-0.3,0-0.4-0.1-0.5-0.3c-0.1-0.2-0.2-0.4-0.2-0.7
			c0-0.4,0.1-0.8,0.4-1.3c0.3-0.5,0.5-0.9,0.9-1.2c0.3-0.3,0.6-0.4,0.9-0.4c0.2,0,0.3,0.1,0.4,0.2s0.2,0.3,0.2,0.5l0.2-0.5
			L609.7,66.8z M608.4,67.6c0-0.2-0.1-0.4-0.1-0.5c-0.1-0.1-0.1-0.1-0.2-0.1s-0.2,0.1-0.3,0.1c-0.2,0.2-0.4,0.5-0.6,1
			c-0.2,0.5-0.3,0.9-0.3,1.3c0,0.2,0,0.3,0.1,0.3s0.1,0.1,0.2,0.1c0.1,0,0.3-0.1,0.4-0.2c0.2-0.2,0.4-0.5,0.5-0.7
			C608.3,68.4,608.4,68,608.4,67.6z"/>
		<path d="M611.8,66.8l-0.6,2.2c0.5-1.1,0.9-1.8,1.1-2c0.2-0.2,0.3-0.2,0.5-0.2c0.1,0,0.2,0.1,0.3,0.1c0.1,0.1,0.1,0.2,0.1,0.4
			c0,0.3-0.1,0.5-0.2,0.7c-0.1,0.1-0.2,0.2-0.3,0.2s-0.2-0.1-0.3-0.2c-0.1-0.1-0.1-0.2-0.1-0.2h-0.1c-0.1,0-0.1,0-0.1,0
			c-0.1,0.1-0.2,0.1-0.3,0.3c-0.1,0.1-0.2,0.4-0.4,0.6c-0.2,0.3-0.3,0.6-0.3,0.7c-0.1,0.2-0.2,0.6-0.3,1.2h-1l0.7-2.6
			c0.1-0.2,0.1-0.3,0.1-0.4c0-0.1,0-0.1-0.1-0.2c0-0.1-0.1-0.1-0.1-0.1c-0.1,0-0.2-0.1-0.3-0.1l0.1-0.1l1.2-0.3
			C611.6,66.8,611.8,66.8,611.8,66.8z"/>
		<path d="M616.1,66.8l-0.2,1.2h-0.2c0-0.3-0.1-0.6-0.3-0.8c-0.2-0.2-0.4-0.3-0.6-0.3c-0.1,0-0.2,0.1-0.3,0.1
			c-0.1,0.1-0.1,0.2-0.1,0.3s0,0.2,0.1,0.3c0.1,0.1,0.1,0.2,0.3,0.3c0.4,0.5,0.7,0.8,0.8,0.9s0.2,0.4,0.2,0.6s-0.1,0.4-0.2,0.6
			c-0.1,0.2-0.3,0.4-0.5,0.5c-0.2,0.1-0.4,0.2-0.7,0.2c-0.2,0-0.4-0.1-0.6-0.1c-0.2-0.1-0.3-0.1-0.4-0.1c-0.1,0-0.1,0-0.2,0.1
			c-0.1,0.1-0.1,0.1-0.1,0.2h-0.2l0.2-1.3h0.1c0.1,0.3,0.2,0.6,0.3,0.7s0.2,0.3,0.3,0.3c0.1,0.1,0.3,0.1,0.4,0.1s0.3-0.1,0.4-0.2
			c0.1-0.1,0.2-0.2,0.2-0.3c0-0.1-0.1-0.3-0.1-0.4c-0.1-0.1-0.2-0.3-0.4-0.6c-0.3-0.4-0.5-0.6-0.6-0.8c-0.1-0.2-0.1-0.3-0.1-0.5
			c0-0.3,0.1-0.5,0.3-0.7c0.2-0.2,0.5-0.3,0.9-0.3c0.2,0,0.4,0.1,0.6,0.1c0.1,0.1,0.2,0.1,0.3,0.1C615.9,67,616,66.9,616.1,66.8
			L616.1,66.8L616.1,66.8z"/>
		<path d="M620.5,66.8l-0.5,1.7c0.4-0.5,0.6-0.9,0.8-1.1c0.3-0.3,0.4-0.5,0.6-0.5c0.2-0.1,0.3-0.1,0.5-0.1c0.2,0,0.3,0.1,0.4,0.2
			c0.1,0.1,0.1,0.2,0.1,0.4s-0.1,0.3-0.1,0.6l-0.2,0.7c0.4-0.5,0.6-0.9,0.8-1.1c0.3-0.3,0.5-0.5,0.6-0.6c0.1-0.1,0.3-0.1,0.4-0.1
			s0.3,0.1,0.4,0.2c0.1,0.1,0.2,0.2,0.2,0.4s-0.1,0.4-0.1,0.7l-0.5,1.5c-0.1,0.2-0.1,0.4-0.1,0.4c0,0,0,0.1,0.1,0.1l0.1,0.1
			c0.1,0,0.1,0,0.1-0.1c0.1-0.1,0.2-0.2,0.3-0.4c0-0.1,0.1-0.1,0.1-0.2l0.2,0.1c-0.2,0.4-0.4,0.6-0.6,0.8c-0.2,0.2-0.4,0.3-0.6,0.3
			c-0.2,0-0.3-0.1-0.4-0.2s-0.2-0.2-0.2-0.3c0-0.1,0.1-0.3,0.1-0.5l0.5-1.6c0.1-0.2,0.1-0.4,0.1-0.4c0,0,0-0.1-0.1-0.1h-0.1
			c-0.1,0-0.1,0-0.1,0c-0.1,0.1-0.2,0.1-0.3,0.2c-0.1,0.1-0.3,0.3-0.5,0.6c-0.2,0.3-0.4,0.5-0.4,0.7s-0.2,0.4-0.2,0.6l-0.3,0.8h-1
			l0.8-2.6c0.1-0.2,0.1-0.3,0.1-0.3c0,0,0-0.1-0.1-0.1h-0.1c-0.1,0-0.3,0.2-0.5,0.4c-0.3,0.4-0.6,0.9-0.9,1.4l-0.3,1.2h-1l0.8-2.5
			c0.1-0.3,0.1-0.4,0.1-0.6c0-0.1,0-0.1-0.1-0.1s-0.1-0.1-0.1-0.1c-0.1,0-0.2,0-0.3,0l0.1-0.2l1.4-0.3L620.5,66.8L620.5,66.8z"/>
		<path d="M628.6,66.8l-0.8,2.6l-0.1,0.3c0,0.1,0,0.1,0,0.1s0,0.1,0.1,0.1l0.1,0.1c0.1,0,0.2-0.1,0.3-0.1c0.1-0.1,0.2-0.2,0.3-0.4
			l0.2,0.1c-0.2,0.4-0.4,0.6-0.6,0.8c-0.2,0.2-0.5,0.3-0.7,0.3c-0.2,0-0.3-0.1-0.4-0.1s-0.1-0.2-0.1-0.3c0-0.1,0.1-0.3,0.2-0.6
			l0.1-0.3c-0.3,0.5-0.6,0.9-0.9,1.1c-0.2,0.2-0.4,0.2-0.5,0.2c-0.3,0-0.4-0.1-0.5-0.3c-0.1-0.2-0.2-0.4-0.2-0.7
			c0-0.4,0.1-0.8,0.4-1.3c0.3-0.5,0.5-0.9,0.9-1.2c0.3-0.3,0.6-0.4,0.9-0.4c0.2,0,0.3,0.1,0.4,0.2s0.2,0.3,0.2,0.5l0.2-0.5
			L628.6,66.8z M627.3,67.6c0-0.2-0.1-0.4-0.1-0.5c-0.1-0.1-0.1-0.1-0.2-0.1s-0.2,0.1-0.3,0.1c-0.2,0.2-0.4,0.5-0.6,1
			c-0.2,0.5-0.3,0.9-0.3,1.3c0,0.2,0,0.3,0.1,0.3s0.1,0.1,0.2,0.1c0.1,0,0.3-0.1,0.4-0.2c0.2-0.2,0.4-0.5,0.5-0.7
			C627.1,68.4,627.3,68,627.3,67.6z"/>
		<path d="M630.8,66.8l-0.8,2.8c-0.1,0.2-0.1,0.3-0.1,0.3s0,0.1,0.1,0.1c0,0.1,0.1,0.1,0.1,0.1c0.1,0,0.1,0,0.2-0.1
			c0.1-0.1,0.3-0.3,0.4-0.6l0.2,0.1c-0.4,0.7-0.8,1.1-1.3,1.1c-0.2,0-0.3-0.1-0.4-0.2c-0.1-0.1-0.2-0.2-0.2-0.4c0-0.1,0-0.2,0.1-0.4
			l0.6-1.9c0.1-0.2,0.1-0.3,0.1-0.4c0-0.1-0.1-0.1-0.1-0.2c-0.1-0.1-0.1-0.1-0.2-0.1c-0.1,0-0.1,0-0.2,0l0.1-0.2l1.4-0.2h0.2V66.8z
			 M630.5,65c0.2,0,0.3,0.1,0.4,0.2s0.2,0.3,0.2,0.4s-0.1,0.3-0.2,0.4c-0.1,0.1-0.3,0.2-0.4,0.2s-0.3-0.1-0.4-0.2
			c-0.1-0.1-0.2-0.3-0.2-0.4s0.1-0.3,0.2-0.4S630.4,65,630.5,65z"/>
		<path d="M633.2,66.8l-0.5,1.7c0.3-0.5,0.6-0.9,0.8-1c0.3-0.3,0.5-0.5,0.6-0.6s0.4-0.2,0.5-0.2s0.3,0.1,0.4,0.2s0.2,0.3,0.2,0.4
			s-0.1,0.3-0.1,0.6l-0.5,1.7c-0.1,0.2-0.1,0.3-0.1,0.3s0,0.1,0.1,0.1l0.1,0.1c0.1,0,0.1,0,0.1-0.1c0.1-0.1,0.2-0.2,0.3-0.3
			c0-0.1,0.1-0.1,0.1-0.2l0.2,0.1c-0.4,0.7-0.8,1-1.2,1c-0.2,0-0.3-0.1-0.4-0.2c-0.1-0.1-0.2-0.2-0.2-0.3c0-0.1,0.1-0.3,0.1-0.5
			l0.5-1.7c0.1-0.1,0.1-0.2,0.1-0.3s0-0.1-0.1-0.1c0,0-0.1-0.1-0.1-0.1c-0.1,0-0.2,0.1-0.4,0.2c-0.4,0.4-0.7,0.9-1.1,1.6l-0.3,1.2
			h-1l0.8-2.5c0.1-0.3,0.1-0.4,0.1-0.6c0-0.1,0-0.1-0.1-0.1c0-0.1-0.1-0.1-0.1-0.1s-0.2,0-0.3,0l0.1-0.2l1.3-0.3L633.2,66.8
			L633.2,66.8z"/>
		<path d="M637.9,65.8l-0.3,1.1h0.5l-0.2,0.5h-0.5l-0.7,2.3c-0.1,0.2-0.1,0.3-0.1,0.3s0,0.1,0.1,0.1c0,0.1,0.1,0.1,0.1,0.1
			s0.1,0,0.2-0.1c0.1-0.1,0.3-0.3,0.4-0.5l0.2,0.1c-0.2,0.3-0.4,0.6-0.6,0.7c-0.2,0.2-0.5,0.2-0.7,0.2c-0.2,0-0.3-0.1-0.4-0.2
			s-0.2-0.2-0.2-0.4s0.1-0.4,0.1-0.6l0.6-2.1h-0.6L636,67c0.4-0.1,0.6-0.3,0.9-0.5c0.3-0.2,0.5-0.5,0.9-0.8L637.9,65.8L637.9,65.8z"
			/>
		<path d="M641.7,66.8l-0.8,2.6l-0.1,0.3c0,0.1,0,0.1,0,0.1s0,0.1,0.1,0.1L641,70c0.1,0,0.2-0.1,0.3-0.1c0.1-0.1,0.2-0.2,0.3-0.4
			l0.2,0.1c-0.2,0.4-0.4,0.6-0.6,0.8s-0.5,0.3-0.7,0.3c-0.2,0-0.3-0.1-0.4-0.1s-0.1-0.2-0.1-0.3c0-0.1,0.1-0.3,0.2-0.6l0.1-0.3
			c-0.3,0.5-0.6,0.9-0.9,1.1c-0.2,0.2-0.4,0.2-0.5,0.2c-0.3,0-0.4-0.1-0.5-0.3c-0.1-0.2-0.2-0.4-0.2-0.7c0-0.4,0.1-0.8,0.4-1.3
			c0.3-0.5,0.5-0.9,0.9-1.2c0.3-0.3,0.6-0.4,0.9-0.4c0.2,0,0.3,0.1,0.4,0.2c0.1,0.1,0.2,0.3,0.2,0.5L641,67L641.7,66.8z M640.5,67.6
			c0-0.2-0.1-0.4-0.1-0.5c-0.1-0.1-0.1-0.1-0.2-0.1s-0.2,0.1-0.3,0.1c-0.2,0.2-0.4,0.5-0.6,1c-0.2,0.5-0.3,0.9-0.3,1.3
			c0,0.2,0,0.3,0.1,0.3c0.1,0.1,0.1,0.1,0.2,0.1c0.1,0,0.3-0.1,0.4-0.2c0.2-0.2,0.4-0.5,0.5-0.7C640.3,68.4,640.5,68,640.5,67.6z"/>
		<path d="M644,66.8l-0.8,2.8c-0.1,0.2-0.1,0.3-0.1,0.3s0,0.1,0.1,0.1c0,0.1,0.1,0.1,0.1,0.1c0.1,0,0.1,0,0.2-0.1
			c0.1-0.1,0.3-0.3,0.4-0.6l0.2,0.1c-0.4,0.7-0.8,1.1-1.3,1.1c-0.2,0-0.3-0.1-0.4-0.2c-0.1-0.1-0.2-0.2-0.2-0.4c0-0.1,0-0.2,0.1-0.4
			l0.6-1.9c0.1-0.2,0.1-0.3,0.1-0.4c0-0.1-0.1-0.1-0.1-0.2c-0.1-0.1-0.1-0.1-0.2-0.1c-0.1,0-0.1,0-0.2,0l0.1-0.2l1.4-0.2h0.2V66.8z
			 M643.7,65c0.2,0,0.3,0.1,0.4,0.2s0.2,0.3,0.2,0.4s-0.1,0.3-0.2,0.4c-0.1,0.1-0.3,0.2-0.4,0.2s-0.3-0.1-0.4-0.2
			c-0.1-0.1-0.2-0.3-0.2-0.4s0.1-0.3,0.2-0.4C643.4,65,643.6,65,643.7,65z"/>
		<path d="M646.4,66.8l-0.5,1.7c0.3-0.5,0.6-0.9,0.8-1c0.3-0.3,0.5-0.5,0.6-0.6s0.4-0.2,0.5-0.2s0.3,0.1,0.4,0.2
			c0.1,0.1,0.2,0.3,0.2,0.4s-0.1,0.3-0.1,0.6l-0.5,1.7c-0.1,0.2-0.1,0.3-0.1,0.3s0,0.1,0.1,0.1l0.1,0.1c0.1,0,0.1,0,0.1-0.1
			c0.1-0.1,0.2-0.2,0.3-0.3c0-0.1,0.1-0.1,0.1-0.2l0.2,0.1c-0.4,0.7-0.8,1-1.2,1c-0.2,0-0.3-0.1-0.4-0.2c-0.1-0.1-0.2-0.2-0.2-0.3
			c0-0.1,0.1-0.3,0.1-0.5l0.5-1.7c0.1-0.1,0.1-0.2,0.1-0.3s0-0.1-0.1-0.1c0,0-0.1-0.1-0.1-0.1c-0.1,0-0.2,0.1-0.4,0.2
			c-0.4,0.4-0.7,0.9-1.1,1.6l-0.3,1.2h-1l0.8-2.5c0.1-0.3,0.1-0.4,0.1-0.6c0-0.1,0-0.1-0.1-0.1c0-0.1-0.1-0.1-0.1-0.1
			c-0.1,0-0.2,0-0.3,0l0.1-0.2l1.3-0.3L646.4,66.8L646.4,66.8z"/>
		<path d="M650.8,66.8l-0.8,2.8c-0.1,0.2-0.1,0.3-0.1,0.3s0,0.1,0.1,0.1c0,0.1,0.1,0.1,0.1,0.1c0.1,0,0.1,0,0.2-0.1
			c0.1-0.1,0.3-0.3,0.4-0.6l0.2,0.1c-0.4,0.7-0.8,1.1-1.3,1.1c-0.2,0-0.3-0.1-0.4-0.2c-0.1-0.1-0.2-0.2-0.2-0.4c0-0.1,0-0.2,0.1-0.4
			l0.6-1.9c0.1-0.2,0.1-0.3,0.1-0.4c0-0.1-0.1-0.1-0.1-0.2c-0.1-0.1-0.1-0.1-0.2-0.1c-0.1,0-0.1,0-0.2,0l0.1-0.2l1.4-0.2h0.2V66.8z
			 M650.5,65c0.2,0,0.3,0.1,0.4,0.2s0.2,0.3,0.2,0.4s-0.1,0.3-0.2,0.4c-0.1,0.1-0.3,0.2-0.4,0.2s-0.3-0.1-0.4-0.2
			c-0.1-0.1-0.2-0.3-0.2-0.4s0.1-0.3,0.2-0.4S650.4,65,650.5,65z"/>
		<path d="M653.1,66.8l-0.5,1.7c0.3-0.5,0.6-0.9,0.8-1c0.3-0.3,0.5-0.5,0.6-0.6s0.4-0.2,0.5-0.2s0.3,0.1,0.4,0.2s0.2,0.3,0.2,0.4
			s-0.1,0.3-0.1,0.6l-0.5,1.7c-0.1,0.2-0.1,0.3-0.1,0.3s0,0.1,0.1,0.1l0.1,0.1c0.1,0,0.1,0,0.1-0.1c0.1-0.1,0.2-0.2,0.3-0.3
			c0-0.1,0.1-0.1,0.1-0.2l0.2,0.1c-0.4,0.7-0.8,1-1.2,1c-0.2,0-0.3-0.1-0.4-0.2c-0.1-0.1-0.2-0.2-0.2-0.3c0-0.1,0.1-0.3,0.1-0.5
			l0.5-1.7c0.1-0.1,0.1-0.2,0.1-0.3s0-0.1-0.1-0.1c0,0-0.1-0.1-0.1-0.1c-0.1,0-0.2,0.1-0.4,0.2c-0.4,0.4-0.7,0.9-1.1,1.6l-0.3,1.2
			h-1l0.8-2.5c0.1-0.3,0.1-0.4,0.1-0.6c0-0.1,0-0.1-0.1-0.1c0-0.1-0.1-0.1-0.1-0.1c-0.1,0-0.2,0-0.3,0l0.1-0.2l1.3-0.3L653.1,66.8
			L653.1,66.8z"/>
		<path d="M658.7,67h1.1l-0.2,0.5H659c0.1,0.2,0.2,0.3,0.2,0.5c0,0.3-0.1,0.5-0.2,0.7c-0.2,0.2-0.3,0.4-0.6,0.5
			c-0.3,0.1-0.6,0.2-0.9,0.2c-0.1,0-0.2,0-0.3,0s-0.2-0.1-0.3-0.1c-0.2,0.1-0.3,0.2-0.4,0.2c-0.1,0.1-0.1,0.1-0.1,0.1
			c0,0.1,0,0.1,0.1,0.1c0.1,0.1,0.2,0.1,0.3,0.2c0.6,0.1,0.9,0.2,1.1,0.3c0.3,0.1,0.4,0.2,0.6,0.4c0.1,0.2,0.2,0.4,0.2,0.6
			c0,0.3-0.2,0.6-0.5,0.9c-0.3,0.3-0.8,0.4-1.4,0.4c-0.7,0-1.1-0.1-1.4-0.3c-0.2-0.2-0.3-0.4-0.3-0.6c0-0.2,0.1-0.3,0.2-0.5
			c0.2-0.2,0.5-0.3,0.9-0.4c-0.2-0.1-0.3-0.2-0.3-0.3c-0.1-0.1-0.1-0.2-0.1-0.3c0-0.2,0.1-0.4,0.2-0.5c0.2-0.2,0.4-0.3,0.7-0.4
			c-0.3-0.1-0.5-0.3-0.6-0.4s-0.2-0.4-0.2-0.6c0-0.3,0.1-0.5,0.2-0.7c0.2-0.2,0.4-0.4,0.6-0.5s0.6-0.2,0.9-0.2c0.2,0,0.4,0,0.6,0.1
			C658.5,66.9,658.6,66.9,658.7,67z M656.5,70.7c-0.3,0.1-0.4,0.2-0.5,0.3c-0.1,0.1-0.2,0.3-0.2,0.4c0,0.2,0.1,0.3,0.3,0.5
			c0.2,0.2,0.5,0.2,0.9,0.2c0.3,0,0.6-0.1,0.7-0.2c0.2-0.2,0.2-0.3,0.2-0.4c0-0.2-0.1-0.3-0.2-0.4c-0.2-0.1-0.4-0.2-0.8-0.3
			C656.7,70.7,656.6,70.7,656.5,70.7z M657.9,66.9c-0.2,0-0.3,0.1-0.3,0.2c-0.2,0.2-0.3,0.4-0.4,0.7c-0.1,0.3-0.2,0.6-0.2,0.9
			c0,0.2,0.1,0.3,0.1,0.3c0.1,0.1,0.2,0.1,0.3,0.1c0.1,0,0.2-0.1,0.3-0.1c0.2-0.2,0.3-0.4,0.4-0.7c0.1-0.3,0.2-0.6,0.2-0.9
			c0-0.1-0.1-0.2-0.1-0.3C658,67,658,66.9,657.9,66.9z"/>
		<path d="M665.5,66.8l-0.8,2.6l-0.1,0.3c0,0.1,0,0.1,0,0.1s0,0.1,0.1,0.1l0.1,0.1c0.1,0,0.2-0.1,0.3-0.1c0.1-0.1,0.2-0.2,0.3-0.4
			l0.2,0.1c-0.2,0.4-0.4,0.6-0.6,0.8c-0.2,0.2-0.5,0.3-0.7,0.3c-0.2,0-0.3-0.1-0.4-0.1s-0.1-0.2-0.1-0.3c0-0.1,0.1-0.3,0.2-0.6
			l0.1-0.3c-0.3,0.5-0.6,0.9-0.9,1.1c-0.2,0.2-0.4,0.2-0.5,0.2c-0.3,0-0.4-0.1-0.5-0.3c-0.1-0.2-0.2-0.4-0.2-0.7
			c0-0.4,0.1-0.8,0.4-1.3c0.3-0.5,0.5-0.9,0.9-1.2c0.3-0.3,0.6-0.4,0.9-0.4c0.2,0,0.3,0.1,0.4,0.2s0.2,0.3,0.2,0.5l0.2-0.5
			L665.5,66.8z M664.3,67.6c0-0.2-0.1-0.4-0.1-0.5c-0.1-0.1-0.1-0.1-0.2-0.1s-0.2,0.1-0.3,0.1c-0.2,0.2-0.4,0.5-0.6,1
			c-0.2,0.5-0.3,0.9-0.3,1.3c0,0.2,0,0.3,0.1,0.3s0.1,0.1,0.2,0.1c0.1,0,0.3-0.1,0.4-0.2c0.2-0.2,0.4-0.5,0.5-0.7
			C664.2,68.4,664.3,68,664.3,67.6z"/>
		<path d="M667.9,66.8l-0.5,1.7c0.3-0.5,0.6-0.9,0.8-1c0.3-0.3,0.5-0.5,0.6-0.6s0.4-0.2,0.5-0.2s0.3,0.1,0.4,0.2
			c0.1,0.1,0.2,0.3,0.2,0.4s-0.1,0.3-0.1,0.6l-0.5,1.7c-0.1,0.2-0.1,0.3-0.1,0.3s0,0.1,0.1,0.1l0.1,0.1c0.1,0,0.1,0,0.1-0.1
			c0.1-0.1,0.2-0.2,0.3-0.3c0-0.1,0.1-0.1,0.1-0.2l0.2,0.1c-0.4,0.7-0.8,1-1.2,1c-0.2,0-0.3-0.1-0.4-0.2c-0.1-0.1-0.2-0.2-0.2-0.3
			c0-0.1,0.1-0.3,0.1-0.5l0.5-1.7c0.1-0.1,0.1-0.2,0.1-0.3s0-0.1-0.1-0.1c0,0-0.1-0.1-0.1-0.1c-0.1,0-0.2,0.1-0.4,0.2
			c-0.4,0.4-0.7,0.9-1.1,1.6l-0.3,1.2h-1l0.8-2.5c0.1-0.3,0.1-0.4,0.1-0.6c0-0.1,0-0.1-0.1-0.1c0-0.1-0.1-0.1-0.1-0.1
			c-0.1,0-0.2,0-0.3,0l0.1-0.2l1.3-0.3L667.9,66.8L667.9,66.8z"/>
		<path d="M673.6,69c-0.1,0.2-0.1,0.3-0.1,0.4c0,0.2,0.1,0.4,0.2,0.5c0.1,0.1,0.3,0.2,0.5,0.2c0.2,0,0.4-0.1,0.6-0.2
			c0.2-0.1,0.4-0.3,0.7-0.5l0.1,0.1c-0.3,0.4-0.6,0.6-0.9,0.8c-0.3,0.2-0.6,0.3-1,0.3c-0.5,0-0.8-0.1-0.9-0.3
			c-0.2-0.2-0.3-0.5-0.3-0.8c0-0.5,0.2-0.9,0.4-1.3c0.3-0.5,0.6-0.8,1-1.1c0.5-0.3,0.9-0.4,1.3-0.4c0.2,0,0.4,0.1,0.5,0.2
			c0.1,0.1,0.2,0.3,0.2,0.4c0,0.2-0.1,0.4-0.2,0.6c-0.2,0.3-0.4,0.5-0.6,0.6c-0.2,0.2-0.5,0.3-0.8,0.4
			C674.2,68.9,673.9,68.9,673.6,69z M673.6,68.8c0.3-0.1,0.4-0.1,0.6-0.2c0.2-0.1,0.3-0.2,0.4-0.3c0.1-0.2,0.3-0.3,0.3-0.5
			c0.1-0.2,0.2-0.4,0.2-0.6c0-0.1,0-0.2-0.1-0.2c-0.1-0.1-0.1-0.1-0.2-0.1c-0.2,0-0.3,0.1-0.4,0.3C674.1,67.6,673.8,68.1,673.6,68.8
			z"/>
		<path d="M676.3,67l1.4-0.3c0.3,0.4,0.4,0.8,0.6,1.3c0.3-0.4,0.5-0.7,0.6-0.8c0.2-0.2,0.3-0.4,0.5-0.4c0.1-0.1,0.3-0.1,0.4-0.1
			c0.2,0,0.3,0.1,0.4,0.1c0.1,0.1,0.1,0.2,0.1,0.3c0,0.2-0.1,0.3-0.1,0.3c-0.1,0.1-0.2,0.1-0.3,0.1c-0.1,0-0.2,0-0.3-0.1
			c-0.1-0.1-0.2-0.1-0.2-0.1c-0.1,0-0.2,0.1-0.3,0.1c-0.2,0.1-0.3,0.4-0.5,0.7c0.2,0.8,0.4,1.3,0.6,1.5c0.1,0.1,0.2,0.2,0.3,0.2
			c0.1,0,0.2,0,0.2-0.1c0.1-0.1,0.2-0.2,0.4-0.4l0.2,0.1c-0.3,0.4-0.5,0.7-0.7,0.8c-0.2,0.1-0.4,0.2-0.5,0.2s-0.3-0.1-0.4-0.1
			c-0.1-0.1-0.2-0.2-0.3-0.4c-0.1-0.2-0.2-0.5-0.3-0.8c-0.3,0.4-0.6,0.7-0.7,0.9c-0.2,0.2-0.3,0.3-0.5,0.4c-0.2,0.1-0.3,0.1-0.4,0.1
			c-0.2,0-0.3-0.1-0.3-0.1c-0.1-0.1-0.1-0.2-0.1-0.3c0-0.2,0.1-0.3,0.2-0.4c0.1-0.1,0.2-0.2,0.4-0.2c0.1,0,0.2,0,0.3,0.1
			c0.2,0.1,0.3,0.1,0.3,0.1c0.1,0,0.2,0,0.2-0.1c0.1-0.1,0.2-0.1,0.3-0.3c0.1-0.1,0.2-0.3,0.4-0.5c-0.3-1-0.5-1.5-0.6-1.7
			c-0.1-0.1-0.2-0.2-0.4-0.2c-0.1,0-0.2,0-0.3,0.1L676.3,67z"/>
		<path d="M681.3,69c-0.1,0.2-0.1,0.3-0.1,0.4c0,0.2,0.1,0.4,0.2,0.5c0.1,0.1,0.3,0.2,0.5,0.2c0.2,0,0.4-0.1,0.6-0.2
			c0.2-0.1,0.4-0.3,0.7-0.5l0.1,0.1c-0.3,0.4-0.6,0.6-0.9,0.8c-0.3,0.2-0.6,0.3-1,0.3c-0.5,0-0.8-0.1-0.9-0.3
			c-0.2-0.2-0.3-0.5-0.3-0.8c0-0.5,0.2-0.9,0.4-1.3c0.3-0.5,0.6-0.8,1-1.1c0.5-0.3,0.9-0.4,1.3-0.4c0.2,0,0.4,0.1,0.5,0.2
			c0.1,0.1,0.2,0.3,0.2,0.4c0,0.2-0.1,0.4-0.2,0.6c-0.2,0.3-0.4,0.5-0.6,0.6s-0.5,0.3-0.8,0.4C681.9,68.9,681.6,68.9,681.3,69z
			 M681.4,68.8c0.3-0.1,0.4-0.1,0.6-0.2c0.2-0.1,0.3-0.2,0.4-0.3c0.1-0.2,0.3-0.3,0.3-0.5c0.1-0.2,0.2-0.4,0.2-0.6
			c0-0.1,0-0.2-0.1-0.2c-0.1-0.1-0.1-0.1-0.2-0.1c-0.2,0-0.3,0.1-0.4,0.3C681.8,67.6,681.5,68.1,681.4,68.8z"/>
		<path d="M686.2,65l-1.3,4.5c-0.1,0.3-0.1,0.4-0.1,0.5c0,0.1,0,0.1,0.1,0.1l0.1,0.1c0.1,0,0.1,0,0.2-0.1c0.2-0.1,0.3-0.3,0.4-0.5
			l0.2,0.1c-0.3,0.4-0.5,0.7-0.8,0.9c-0.2,0.1-0.4,0.2-0.6,0.2c-0.2,0-0.3-0.1-0.4-0.2c-0.1-0.1-0.2-0.2-0.2-0.4
			c0-0.1,0.1-0.3,0.1-0.5l1.1-3.7c0.1-0.2,0.1-0.4,0.1-0.4c0-0.1-0.1-0.1-0.1-0.2c-0.1-0.1-0.2-0.1-0.4-0.1l0.1-0.2l1.3-0.3
			L686.2,65L686.2,65z"/>
		<path d="M688.5,65l-1.3,4.5c-0.1,0.3-0.1,0.4-0.1,0.5c0,0.1,0,0.1,0.1,0.1l0.1,0.1c0.1,0,0.1,0,0.2-0.1c0.2-0.1,0.3-0.3,0.4-0.5
			l0.2,0.1c-0.3,0.4-0.5,0.7-0.8,0.9c-0.2,0.1-0.4,0.2-0.6,0.2c-0.2,0-0.3-0.1-0.4-0.2c-0.1-0.1-0.2-0.2-0.2-0.4
			c0-0.1,0.1-0.3,0.1-0.5l1.1-3.7c0.1-0.2,0.1-0.4,0.1-0.4c0-0.1-0.1-0.1-0.1-0.2c-0.1-0.1-0.2-0.1-0.4-0.1l0.1-0.2l1.3-0.3
			L688.5,65L688.5,65z"/>
		<path d="M689.4,69c-0.1,0.2-0.1,0.3-0.1,0.4c0,0.2,0.1,0.4,0.2,0.5c0.1,0.1,0.3,0.2,0.5,0.2c0.2,0,0.4-0.1,0.6-0.2
			c0.2-0.1,0.4-0.3,0.7-0.5l0.1,0.1c-0.3,0.4-0.6,0.6-0.9,0.8c-0.3,0.2-0.6,0.3-1,0.3c-0.5,0-0.8-0.1-0.9-0.3
			c-0.2-0.2-0.3-0.5-0.3-0.8c0-0.5,0.2-0.9,0.4-1.3c0.3-0.5,0.6-0.8,1-1.1c0.5-0.3,0.9-0.4,1.3-0.4c0.2,0,0.4,0.1,0.5,0.2
			c0.1,0.1,0.2,0.3,0.2,0.4c0,0.2-0.1,0.4-0.2,0.6c-0.2,0.3-0.4,0.5-0.6,0.6s-0.5,0.3-0.8,0.4C690.1,68.9,689.8,68.9,689.4,69z
			 M689.5,68.8c0.3-0.1,0.4-0.1,0.6-0.2c0.2-0.1,0.3-0.2,0.4-0.3s0.3-0.3,0.3-0.5c0.1-0.2,0.2-0.4,0.2-0.6c0-0.1,0-0.2-0.1-0.2
			c-0.1-0.1-0.1-0.1-0.2-0.1c-0.2,0-0.3,0.1-0.4,0.3C690,67.6,689.7,68.1,689.5,68.8z"/>
		<path d="M694,66.8l-0.5,1.7c0.3-0.5,0.6-0.9,0.8-1c0.3-0.3,0.5-0.5,0.6-0.6s0.4-0.2,0.5-0.2s0.3,0.1,0.4,0.2s0.2,0.3,0.2,0.4
			s-0.1,0.3-0.1,0.6l-0.5,1.7c-0.1,0.2-0.1,0.3-0.1,0.3s0,0.1,0.1,0.1l0.1,0.1c0.1,0,0.1,0,0.1-0.1c0.1-0.1,0.2-0.2,0.3-0.3
			c0-0.1,0.1-0.1,0.1-0.2l0.2,0.1c-0.4,0.7-0.8,1-1.2,1c-0.2,0-0.3-0.1-0.4-0.2c-0.1-0.1-0.2-0.2-0.2-0.3c0-0.1,0.1-0.3,0.1-0.5
			l0.5-1.7c0.1-0.1,0.1-0.2,0.1-0.3s0-0.1-0.1-0.1c0,0-0.1-0.1-0.1-0.1c-0.1,0-0.2,0.1-0.4,0.2c-0.4,0.4-0.7,0.9-1.1,1.6l-0.3,1.2
			h-1l0.8-2.5c0.1-0.3,0.1-0.4,0.1-0.6c0-0.1,0-0.1-0.1-0.1c0-0.1-0.1-0.1-0.1-0.1s-0.2,0-0.3,0l0.1-0.2l1.3-0.3L694,66.8L694,66.8z
			"/>
		<path d="M698.7,65.8l-0.3,1.1h0.5l-0.2,0.5h-0.5l-0.7,2.3c-0.1,0.2-0.1,0.3-0.1,0.3s0,0.1,0.1,0.1c0,0.1,0.1,0.1,0.1,0.1
			c0.1,0,0.1,0,0.2-0.1c0.1-0.1,0.3-0.3,0.4-0.5l0.2,0.1c-0.2,0.3-0.4,0.6-0.6,0.7c-0.2,0.2-0.5,0.2-0.7,0.2c-0.2,0-0.3-0.1-0.4-0.2
			s-0.2-0.2-0.2-0.4s0.1-0.4,0.1-0.6l0.6-2.1h-0.6l0.1-0.3c0.4-0.1,0.6-0.3,0.9-0.5c0.3-0.2,0.5-0.5,0.9-0.8L698.7,65.8L698.7,65.8z
			"/>
		<path d="M702.6,66.8L702,69c0.5-1.1,0.9-1.8,1.1-2c0.2-0.2,0.3-0.2,0.5-0.2c0.1,0,0.2,0.1,0.3,0.1c0.1,0.1,0.1,0.2,0.1,0.4
			c0,0.3-0.1,0.5-0.2,0.7c-0.1,0.1-0.2,0.2-0.3,0.2s-0.2-0.1-0.3-0.2c-0.1-0.1-0.1-0.2-0.1-0.2h-0.1c-0.1,0-0.1,0-0.1,0
			c-0.1,0.1-0.2,0.1-0.3,0.3c-0.1,0.1-0.2,0.4-0.4,0.6c-0.2,0.3-0.3,0.6-0.3,0.7c-0.1,0.2-0.2,0.6-0.3,1.2h-1l0.7-2.6
			c0.1-0.2,0.1-0.3,0.1-0.4c0-0.1,0-0.1-0.1-0.2c0-0.1-0.1-0.1-0.1-0.1c-0.1,0-0.2-0.1-0.3-0.1l0.1-0.1l1.2-0.3
			C702.4,66.8,702.6,66.8,702.6,66.8z"/>
		<path d="M705.1,69c-0.1,0.2-0.1,0.3-0.1,0.4c0,0.2,0.1,0.4,0.2,0.5c0.1,0.1,0.3,0.2,0.5,0.2c0.2,0,0.4-0.1,0.6-0.2
			c0.2-0.1,0.4-0.3,0.7-0.5l0.1,0.1c-0.3,0.4-0.6,0.6-0.9,0.8c-0.3,0.2-0.6,0.3-1,0.3c-0.5,0-0.8-0.1-0.9-0.3
			c-0.2-0.2-0.3-0.5-0.3-0.8c0-0.5,0.2-0.9,0.4-1.3c0.3-0.5,0.6-0.8,1-1.1c0.5-0.3,0.9-0.4,1.3-0.4c0.2,0,0.4,0.1,0.5,0.2
			c0.1,0.1,0.2,0.3,0.2,0.4c0,0.2-0.1,0.4-0.2,0.6c-0.2,0.3-0.4,0.5-0.6,0.6s-0.5,0.3-0.8,0.4C705.7,68.9,705.5,68.9,705.1,69z
			 M705.2,68.8c0.3-0.1,0.4-0.1,0.6-0.2c0.2-0.1,0.3-0.2,0.4-0.3s0.3-0.3,0.3-0.5c0.1-0.2,0.2-0.4,0.2-0.6c0-0.1,0-0.2-0.1-0.2
			c-0.1-0.1-0.1-0.1-0.2-0.1c-0.2,0-0.3,0.1-0.4,0.3C705.6,67.6,705.4,68.1,705.2,68.8z"/>
		<path d="M708,67l1.3-0.2h0.3l-0.2,0.7c0.3-0.3,0.5-0.4,0.7-0.5c0.2-0.1,0.4-0.2,0.5-0.2c0.3,0,0.5,0.1,0.6,0.3
			c0.2,0.2,0.2,0.4,0.2,0.7c0,0.8-0.3,1.4-0.8,2c-0.5,0.5-1,0.8-1.5,0.8c-0.1,0-0.2,0-0.3-0.1c-0.1-0.1-0.2-0.1-0.3-0.1l-0.2,0.7
			c-0.1,0.3-0.1,0.5-0.1,0.6c0,0.1,0.1,0.2,0.1,0.2c0.1,0.1,0.2,0.1,0.4,0.1l-0.1,0.2h-2.1l0.1-0.2c0.2,0,0.3-0.1,0.4-0.2
			c0.1-0.1,0.2-0.3,0.3-0.7l1-3.4c0.1-0.3,0.1-0.4,0.1-0.6c0-0.1,0-0.1-0.1-0.1s-0.1-0.1-0.1-0.1c-0.1,0-0.2,0-0.3,0L708,67z
			 M708.6,70c0.1,0.2,0.2,0.2,0.2,0.3c0.1,0.1,0.2,0.1,0.2,0.1s0.2,0,0.3-0.1c0.1-0.1,0.2-0.2,0.3-0.3s0.3-0.3,0.4-0.6
			c0.1-0.2,0.2-0.5,0.3-0.8s0.1-0.6,0.1-0.8c0-0.2-0.1-0.4-0.1-0.5c-0.1-0.1-0.2-0.2-0.3-0.2c-0.1,0-0.2,0-0.3,0.1
			c-0.1,0.1-0.3,0.2-0.4,0.4L708.6,70z"/>
		<path d="M713.8,66.8l-0.8,2.7c-0.1,0.1-0.1,0.2-0.1,0.3c0,0.1,0,0.1,0.1,0.1l0.1,0.1c0.1,0,0.3-0.1,0.5-0.3
			c0.3-0.3,0.6-0.8,0.9-1.4l0.4-1.2l1-0.1l-0.8,2.6c-0.1,0.2-0.1,0.4-0.1,0.4c0,0,0,0.1,0.1,0.1l0.1,0.1c0.1,0,0.1,0,0.1-0.1
			c0.1-0.1,0.2-0.3,0.4-0.5l0.2,0.1c-0.4,0.7-0.8,1-1.2,1c-0.2,0-0.3-0.1-0.4-0.1c-0.1-0.1-0.2-0.2-0.2-0.3c0-0.2,0.1-0.3,0.1-0.6
			l0.2-0.7c-0.4,0.5-0.6,0.9-0.8,1c-0.3,0.3-0.5,0.5-0.6,0.5s-0.3,0.2-0.5,0.2s-0.3-0.1-0.4-0.2s-0.2-0.3-0.2-0.4s0.1-0.3,0.1-0.6
			l0.5-1.6c0.1-0.3,0.1-0.5,0.1-0.5s0-0.1-0.1-0.1c-0.1-0.1-0.1-0.1-0.1-0.1c-0.1,0-0.2,0-0.3,0l0.1-0.2l1.4-0.3h0.2V66.8z"/>
		<path d="M718.4,65.8l-0.3,1.1h0.5l-0.2,0.5H718l-0.7,2.3c-0.1,0.2-0.1,0.3-0.1,0.3s0,0.1,0.1,0.1c0,0.1,0.1,0.1,0.1,0.1
			c0.1,0,0.1,0,0.2-0.1c0.1-0.1,0.3-0.3,0.4-0.5l0.2,0.1c-0.2,0.3-0.4,0.6-0.6,0.7c-0.2,0.2-0.5,0.2-0.7,0.2c-0.2,0-0.3-0.1-0.4-0.2
			s-0.2-0.2-0.2-0.4s0.1-0.4,0.1-0.6l0.6-2.1h-0.6l0.1-0.3c0.4-0.1,0.6-0.3,0.9-0.5c0.3-0.2,0.5-0.5,0.9-0.8L718.4,65.8L718.4,65.8z
			"/>
		<path d="M722.3,66.8l-0.8,2.6l-0.1,0.3c0,0.1,0,0.1,0,0.1s0,0.1,0.1,0.1l0.1,0.1c0.1,0,0.2-0.1,0.3-0.1c0.1-0.1,0.2-0.2,0.3-0.4
			l0.2,0.1c-0.2,0.4-0.4,0.6-0.6,0.8s-0.5,0.3-0.7,0.3c-0.2,0-0.3-0.1-0.4-0.1s-0.1-0.2-0.1-0.3c0-0.1,0.1-0.3,0.2-0.6l0.1-0.3
			c-0.3,0.5-0.6,0.9-0.9,1.1c-0.2,0.2-0.4,0.2-0.5,0.2c-0.3,0-0.4-0.1-0.5-0.3c-0.1-0.2-0.2-0.4-0.2-0.7c0-0.4,0.1-0.8,0.4-1.3
			c0.3-0.5,0.5-0.9,0.9-1.2c0.3-0.3,0.6-0.4,0.9-0.4c0.2,0,0.3,0.1,0.4,0.2c0.1,0.1,0.2,0.3,0.2,0.5l0.2-0.5L722.3,66.8z M721,67.6
			c0-0.2-0.1-0.4-0.1-0.5c-0.1-0.1-0.1-0.1-0.2-0.1s-0.2,0.1-0.3,0.1c-0.2,0.2-0.4,0.5-0.6,1c-0.2,0.5-0.3,0.9-0.3,1.3
			c0,0.2,0,0.3,0.1,0.3c0.1,0.1,0.1,0.1,0.2,0.1c0.1,0,0.3-0.1,0.4-0.2c0.2-0.2,0.4-0.5,0.5-0.7C720.9,68.4,721,68,721,67.6z"/>
		<path d="M724.8,65.8l-0.3,1.1h0.5l-0.2,0.5h-0.5l-0.7,2.3c-0.1,0.2-0.1,0.3-0.1,0.3s0,0.1,0.1,0.1c0,0.1,0.1,0.1,0.1,0.1
			c0.1,0,0.1,0,0.2-0.1c0.1-0.1,0.3-0.3,0.4-0.5l0.2,0.1c-0.2,0.3-0.4,0.6-0.6,0.7c-0.2,0.2-0.5,0.2-0.7,0.2c-0.2,0-0.3-0.1-0.4-0.2
			s-0.2-0.2-0.2-0.4s0.1-0.4,0.1-0.6l0.6-2.1h-0.6l0.1-0.3c0.4-0.1,0.6-0.3,0.9-0.5c0.3-0.2,0.5-0.5,0.9-0.8L724.8,65.8L724.8,65.8z
			"/>
		<path d="M726.8,66.8l-0.8,2.8c-0.1,0.2-0.1,0.3-0.1,0.3s0,0.1,0.1,0.1c0,0.1,0.1,0.1,0.1,0.1c0.1,0,0.1,0,0.2-0.1
			c0.1-0.1,0.3-0.3,0.4-0.6l0.2,0.1c-0.4,0.7-0.8,1.1-1.3,1.1c-0.2,0-0.3-0.1-0.4-0.2c-0.1-0.1-0.2-0.2-0.2-0.4c0-0.1,0-0.2,0.1-0.4
			l0.6-1.9c0.1-0.2,0.1-0.3,0.1-0.4c0-0.1-0.1-0.1-0.1-0.2c-0.1-0.1-0.1-0.1-0.2-0.1c-0.1,0-0.1,0-0.2,0l0.1-0.2l1.4-0.2h0.2V66.8z
			 M726.6,65c0.2,0,0.3,0.1,0.4,0.2s0.2,0.3,0.2,0.4s-0.1,0.3-0.2,0.4c-0.1,0.1-0.3,0.2-0.4,0.2s-0.3-0.1-0.4-0.2
			c-0.1-0.1-0.2-0.3-0.2-0.4s0.1-0.3,0.2-0.4S726.4,65,726.6,65z"/>
		<path d="M729.7,66.8c0.2,0,0.4,0.1,0.6,0.2c0.2,0.1,0.3,0.3,0.4,0.4s0.2,0.4,0.2,0.6c0,0.4-0.1,0.9-0.4,1.3c-0.3,0.4-0.6,0.8-1,1
			c-0.4,0.3-0.8,0.4-1.2,0.4s-0.7-0.1-0.9-0.3c-0.2-0.2-0.3-0.5-0.3-0.8s0.1-0.7,0.2-1s0.4-0.6,0.6-0.9c0.2-0.3,0.5-0.5,0.8-0.6
			C729,66.9,729.4,66.8,729.7,66.8z M729.5,67c-0.2,0-0.3,0.1-0.4,0.1c-0.2,0.2-0.4,0.6-0.6,1.2c-0.3,0.6-0.4,1.2-0.4,1.7
			c0,0.1,0.1,0.2,0.1,0.3c0.1,0.1,0.2,0.1,0.3,0.1s0.2-0.1,0.3-0.1c0.1-0.1,0.3-0.3,0.5-0.7c0.2-0.4,0.3-0.7,0.4-1.1
			c0.1-0.4,0.2-0.8,0.2-1.1c0-0.2-0.1-0.3-0.1-0.3C729.7,67,729.6,67,729.5,67z"/>
		<path d="M733.3,66.8l-0.5,1.7c0.3-0.5,0.6-0.9,0.8-1c0.3-0.3,0.5-0.5,0.6-0.6s0.4-0.2,0.5-0.2s0.3,0.1,0.4,0.2
			c0.1,0.1,0.2,0.3,0.2,0.4s-0.1,0.3-0.1,0.6l-0.5,1.7c-0.1,0.2-0.1,0.3-0.1,0.3s0,0.1,0.1,0.1l0.1,0.1c0.1,0,0.1,0,0.1-0.1
			c0.1-0.1,0.2-0.2,0.3-0.3c0-0.1,0.1-0.1,0.1-0.2l0.2,0.1c-0.4,0.7-0.8,1-1.2,1c-0.2,0-0.3-0.1-0.4-0.2c-0.1-0.1-0.2-0.2-0.2-0.3
			c0-0.1,0.1-0.3,0.1-0.5l0.5-1.7c0.1-0.1,0.1-0.2,0.1-0.3s0-0.1-0.1-0.1c0,0-0.1-0.1-0.1-0.1c-0.1,0-0.2,0.1-0.4,0.2
			c-0.4,0.4-0.7,0.9-1.1,1.6l-0.3,1.2h-1l0.8-2.5c0.1-0.3,0.1-0.4,0.1-0.6c0-0.1,0-0.1-0.1-0.1c0-0.1-0.1-0.1-0.1-0.1
			c-0.1,0-0.2,0-0.3,0l0.1-0.2l1.3-0.3L733.3,66.8L733.3,66.8z"/>
		<path d="M736.2,69.3c0.2,0,0.4,0.1,0.5,0.2c0.2,0.2,0.2,0.3,0.2,0.5c0,0.2-0.1,0.4-0.2,0.5c-0.2,0.2-0.3,0.2-0.5,0.2
			c-0.2,0-0.4-0.1-0.5-0.2c-0.2-0.2-0.2-0.3-0.2-0.5c0-0.2,0.1-0.4,0.2-0.5C735.8,69.3,736,69.3,736.2,69.3z"/>
	</g>
</g>
<g id="Слой_3_xA0_Image_1_">
	
		<image display="none" overflow="visible" opacity="0.48" enable-background="new    " width="480" height="169" id="эскиз" xlink:href="E12DAE0A.png"  transform="matrix(0.1387 0 0 0.1346 404.9107 37.7169)">
	</image>
	<g>
		<path d="M482.5,50.8h-6.2l-1.1,2.5c-0.3,0.6-0.4,1.1-0.4,1.4c0,0.3,0.1,0.5,0.4,0.7c0.3,0.2,0.8,0.3,1.5,0.4v0.5h-5v-0.5
			c0.7-0.1,1.1-0.3,1.3-0.5c0.4-0.4,0.9-1.2,1.3-2.3l5.6-13.2h0.4l5.6,13.3c0.5,1.1,0.9,1.8,1.2,2.1s0.9,0.5,1.5,0.6v0.5h-6.3v-0.5
			c0.7-0.1,1.1-0.2,1.3-0.3c0.2-0.2,0.3-0.4,0.3-0.7c0-0.4-0.2-0.9-0.5-1.6L482.5,50.8z M482.1,49.9l-2.7-6.5l-2.8,6.5H482.1z"/>
		<path d="M498.8,56.2l-6.2-13.5v10.7c0,1,0.1,1.6,0.3,1.8c0.3,0.4,0.8,0.5,1.4,0.5h0.6v0.5h-5.6v-0.5h0.6c0.7,0,1.2-0.2,1.4-0.6
			c0.2-0.3,0.3-0.8,0.3-1.7V42.9c0-0.7-0.1-1.2-0.3-1.5c-0.1-0.2-0.3-0.4-0.6-0.6c-0.3-0.2-0.8-0.3-1.4-0.3v-0.5h4.5l5.8,12.6
			l5.7-12.6h4.5v0.5h-0.6c-0.7,0-1.2,0.2-1.5,0.6c-0.2,0.3-0.3,0.8-0.3,1.7v10.5c0,1,0.1,1.6,0.3,1.8c0.3,0.4,0.8,0.5,1.4,0.5h0.6
			v0.5h-6.8v-0.5h0.6c0.7,0,1.2-0.2,1.4-0.6c0.2-0.3,0.3-0.8,0.3-1.7V42.7L499,56.2L498.8,56.2L498.8,56.2z"/>
		<path d="M521.4,50.8h-6.2l-1.1,2.5c-0.3,0.6-0.4,1.1-0.4,1.4c0,0.3,0.1,0.5,0.4,0.7s0.8,0.3,1.5,0.4v0.5h-5v-0.5
			c0.7-0.1,1.1-0.3,1.3-0.5c0.4-0.4,0.9-1.2,1.3-2.3l5.6-13.2h0.4l5.6,13.3c0.5,1.1,0.9,1.8,1.2,2.1c0.4,0.3,0.9,0.5,1.5,0.6v0.5
			h-6.3v-0.5c0.7-0.1,1.1-0.2,1.3-0.3c0.2-0.2,0.4-0.4,0.4-0.7c0-0.4-0.2-0.9-0.5-1.6L521.4,50.8z M521.1,49.9l-2.7-6.5l-2.8,6.5
			H521.1z"/>
		<path d="M541.8,40.1l-10.5,15.1h6.6c1,0,1.8-0.2,2.3-0.7c0.6-0.5,1-1.3,1.4-2.7l0.4,0.1l-0.8,4.2h-13v-0.5L538.5,41h-5.1
			c-0.9,0-1.5,0.1-1.8,0.3c-0.4,0.2-0.7,0.5-0.9,0.8s-0.4,1-0.6,2h-0.5l0.4-4L541.8,40.1L541.8,40.1z"/>
		<path d="M551.5,39.8c2.1,0,3.9,0.8,5.4,2.4c1.5,1.6,2.3,3.6,2.3,5.9c0,2.4-0.8,4.5-2.3,6.1c-1.5,1.6-3.4,2.4-5.6,2.4
			c-2.2,0-4.1-0.8-5.5-2.3c-1.5-1.6-2.2-3.6-2.2-6.1c0-2.5,0.9-4.6,2.6-6.2C547.6,40.5,549.4,39.8,551.5,39.8z M551.2,40.6
			c-1.4,0-2.6,0.5-3.5,1.6c-1.1,1.3-1.6,3.3-1.6,5.8c0,2.6,0.6,4.6,1.7,6.1c0.9,1.1,2,1.6,3.4,1.6c1.5,0,2.7-0.6,3.7-1.8
			c1-1.2,1.5-3,1.5-5.5c0-2.7-0.6-4.8-1.6-6.2C554,41.2,552.8,40.6,551.2,40.6z"/>
		<path d="M559.8,40.1h4.4l9.8,12v-9.2c0-1-0.1-1.6-0.4-1.8c-0.3-0.4-0.8-0.5-1.4-0.5h-0.6v-0.5h5.6v0.5h-0.6
			c-0.7,0-1.2,0.2-1.5,0.6c-0.2,0.3-0.3,0.8-0.3,1.7v13.5h-0.4L564,43.5v9.9c0,1,0.1,1.6,0.3,1.8c0.3,0.4,0.8,0.5,1.4,0.5h0.6v0.5
			h-5.6v-0.5h0.6c0.7,0,1.2-0.2,1.5-0.6c0.2-0.3,0.3-0.8,0.3-1.7V42.3c-0.5-0.6-0.8-0.9-1.1-1.1c-0.3-0.2-0.6-0.4-1.1-0.5
			c-0.2-0.1-0.6-0.1-1-0.1L559.8,40.1L559.8,40.1z"/>
		<path d="M594.7,39.8v5.5h-0.5c-0.2-1.1-0.4-1.9-0.8-2.5c-0.4-0.6-0.9-1.1-1.6-1.5s-1.4-0.6-2.1-0.6c-0.8,0-1.5,0.3-2,0.8
			c-0.6,0.5-0.8,1.1-0.8,1.7c0,0.5,0.2,0.9,0.5,1.3c0.5,0.6,1.6,1.4,3.5,2.3c1.5,0.8,2.5,1.4,3.1,1.8c0.6,0.4,1,0.9,1.3,1.5
			c0.3,0.6,0.5,1.2,0.5,1.8c0,1.2-0.5,2.2-1.4,3.2c-0.9,0.9-2.1,1.3-3.6,1.3c-0.5,0-0.9-0.1-1.3-0.1c-0.3-0.1-0.8-0.2-1.5-0.5
			c-0.8-0.3-1.3-0.4-1.5-0.4s-0.4,0.1-0.5,0.2c-0.1,0.1-0.2,0.4-0.3,0.7h-0.4V51h0.4c0.2,1.2,0.5,2,0.8,2.6s0.9,1.1,1.6,1.4
			c0.7,0.4,1.5,0.6,2.3,0.6c1,0,1.7-0.3,2.3-0.8s0.9-1.1,0.9-1.8c0-0.4-0.1-0.8-0.3-1.2c-0.2-0.4-0.6-0.8-1-1.1
			c-0.3-0.3-1.1-0.7-2.5-1.5c-1.4-0.8-2.3-1.4-3-1.8c-0.6-0.5-1-1-1.3-1.5c-0.3-0.6-0.5-1.2-0.5-1.8c0-1.2,0.5-2.1,1.3-3
			c0.9-0.8,2-1.3,3.4-1.3c0.9,0,1.7,0.2,2.7,0.6c0.5,0.2,0.8,0.3,0.9,0.3c0.2,0,0.4-0.1,0.5-0.2c0.2-0.1,0.3-0.4,0.3-0.8h0.6V39.8z"
			/>
		<path d="M602.1,47.6h7.4V43c0-0.8-0.1-1.4-0.2-1.6c-0.1-0.2-0.3-0.4-0.5-0.5c-0.4-0.2-0.7-0.3-1.1-0.3h-0.6v-0.5h6.9v0.5h-0.6
			c-0.4,0-0.7,0.1-1.1,0.3c-0.3,0.2-0.4,0.3-0.5,0.6c-0.1,0.3-0.2,0.8-0.2,1.6v10.3c0,0.8,0.1,1.3,0.2,1.6c0.1,0.2,0.3,0.4,0.5,0.5
			c0.4,0.2,0.7,0.3,1.1,0.3h0.6v0.5h-6.9v-0.5h0.6c0.7,0,1.1-0.2,1.4-0.6c0.2-0.3,0.3-0.9,0.3-1.8v-4.9h-7.4v4.9
			c0,0.8,0.1,1.3,0.2,1.6c0.1,0.2,0.3,0.4,0.5,0.5c0.4,0.2,0.7,0.3,1.1,0.3h0.6v0.5h-6.9v-0.5h0.6c0.7,0,1.1-0.2,1.4-0.6
			c0.2-0.3,0.3-0.9,0.3-1.8V43c0-0.8-0.1-1.4-0.2-1.6c-0.1-0.2-0.3-0.4-0.5-0.5c-0.4-0.2-0.7-0.3-1.1-0.3h-0.5v-0.5h6.9v0.5h-0.6
			c-0.4,0-0.7,0.1-1.1,0.3c-0.3,0.2-0.4,0.3-0.5,0.6c-0.1,0.3-0.2,0.8-0.2,1.6L602.1,47.6L602.1,47.6z"/>
		<path d="M622,55.7v0.5h-6.9v-0.5h0.6c0.7,0,1.1-0.2,1.4-0.6c0.2-0.3,0.3-0.9,0.3-1.8V43c0-0.8-0.1-1.4-0.2-1.6
			c-0.1-0.2-0.3-0.4-0.5-0.5c-0.4-0.2-0.7-0.3-1.1-0.3h-0.6v-0.5h6.9v0.5h-0.6c-0.7,0-1.1,0.2-1.4,0.6c-0.2,0.3-0.3,0.9-0.3,1.8
			v10.3c0,0.8,0.1,1.3,0.2,1.6c0.1,0.2,0.3,0.4,0.5,0.5c0.4,0.2,0.7,0.3,1.1,0.3h0.7V55.7z"/>
		<path d="M627.6,48.7v4.7c0,1,0.1,1.6,0.4,1.9c0.3,0.4,0.8,0.5,1.4,0.5h0.6v0.5h-6.9v-0.5h0.6c0.7,0,1.2-0.2,1.5-0.7
			c0.2-0.3,0.3-0.8,0.3-1.7V43c0-1-0.1-1.6-0.3-1.9c-0.3-0.4-0.8-0.5-1.4-0.5h-0.6v-0.5h5.8c1.4,0,2.6,0.2,3.4,0.5s1.5,0.8,2.1,1.5
			c0.6,0.7,0.9,1.5,0.9,2.5c0,1.3-0.4,2.4-1.3,3.2c-0.9,0.8-2.1,1.2-3.7,1.2c-0.4,0-0.8-0.1-1.3-0.1
			C628.7,48.8,628.1,48.8,627.6,48.7z M627.6,48c0.4,0.1,0.8,0.2,1.1,0.2c0.3,0,0.6,0.1,0.8,0.1c0.8,0,1.5-0.3,2.1-1
			c0.6-0.7,0.9-1.5,0.9-2.4c0-0.7-0.2-1.3-0.4-1.9c-0.3-0.6-0.7-1-1.2-1.3c-0.5-0.3-1.1-0.5-1.8-0.5c-0.4,0-0.9,0.1-1.6,0.2
			L627.6,48L627.6,48z"/>
		<path d="M641,48.7v4.7c0,1,0.1,1.6,0.4,1.9c0.3,0.4,0.8,0.5,1.4,0.5h0.6v0.5h-6.9v-0.5h0.6c0.7,0,1.2-0.2,1.5-0.7
			c0.2-0.3,0.3-0.8,0.3-1.7V43c0-1-0.1-1.6-0.3-1.9c-0.3-0.4-0.8-0.5-1.4-0.5h-0.6v-0.5h5.8c1.4,0,2.6,0.2,3.4,0.5
			c0.8,0.3,1.5,0.8,2.1,1.5c0.6,0.7,0.9,1.5,0.9,2.5c0,1.3-0.4,2.4-1.3,3.2c-0.9,0.8-2.1,1.2-3.7,1.2c-0.4,0-0.8-0.1-1.3-0.1
			C642.1,48.8,641.5,48.8,641,48.7z M641,48c0.4,0.1,0.8,0.2,1.1,0.2c0.3,0,0.6,0.1,0.8,0.1c0.8,0,1.5-0.3,2.1-1
			c0.6-0.7,0.9-1.5,0.9-2.4c0-0.7-0.2-1.3-0.4-1.9c-0.3-0.6-0.7-1-1.2-1.3c-0.5-0.3-1.1-0.5-1.8-0.5c-0.4,0-0.9,0.1-1.6,0.2L641,48
			L641,48z"/>
		<path d="M657,55.7v0.5h-6.9v-0.5h0.6c0.7,0,1.1-0.2,1.4-0.6c0.2-0.3,0.3-0.9,0.3-1.8V43c0-0.8-0.1-1.4-0.2-1.6
			c-0.1-0.2-0.3-0.4-0.5-0.5c-0.4-0.2-0.7-0.3-1.1-0.3h-0.6v-0.5h6.9v0.5h-0.6c-0.7,0-1.1,0.2-1.4,0.6c-0.2,0.3-0.3,0.9-0.3,1.8
			v10.3c0,0.8,0.1,1.3,0.2,1.6c0.1,0.2,0.3,0.4,0.5,0.5c0.4,0.2,0.7,0.3,1.1,0.3h0.6V55.7z"/>
		<path d="M657.3,40.1h4.4l9.8,12v-9.2c0-1-0.1-1.6-0.4-1.8c-0.3-0.4-0.8-0.5-1.4-0.5h-0.6v-0.5h5.6v0.5h-0.6
			c-0.7,0-1.2,0.2-1.5,0.6c-0.2,0.3-0.3,0.8-0.3,1.7v13.5H672l-10.6-12.9v9.9c0,1,0.1,1.6,0.3,1.8c0.3,0.4,0.8,0.5,1.4,0.5h0.6v0.5
			h-5.6v-0.5h0.6c0.7,0,1.2-0.2,1.5-0.6c0.2-0.3,0.3-0.8,0.3-1.7V42.3c-0.5-0.6-0.8-0.9-1.1-1.1c-0.3-0.2-0.6-0.4-1.1-0.5
			c-0.2-0.1-0.6-0.1-1-0.1L657.3,40.1L657.3,40.1z"/>
		<path d="M689.9,39.8l0.4,5.1h-0.4c-0.4-1.3-1-2.2-1.6-2.8c-1-0.9-2.2-1.4-3.7-1.4c-2,0-3.6,0.8-4.6,2.4c-0.9,1.4-1.3,3-1.3,4.8
			c0,1.5,0.3,3,0.9,4.2c0.6,1.3,1.4,2.2,2.3,2.7c1,0.6,1.9,0.9,3,0.9c0.6,0,1.2-0.1,1.7-0.2c0.6-0.2,1.1-0.4,1.6-0.7v-4.6
			c0-0.8-0.1-1.3-0.2-1.6c-0.1-0.3-0.3-0.5-0.6-0.6s-0.7-0.2-1.4-0.2v-0.5h6.2v0.5h-0.3c-0.6,0-1,0.2-1.3,0.6
			c-0.2,0.3-0.3,0.9-0.3,1.7v4.9c-0.9,0.5-1.8,0.9-2.7,1.1c-0.9,0.3-1.9,0.4-3,0.4c-3.1,0-5.4-1-7.1-3c-1.2-1.5-1.8-3.2-1.8-5.1
			c0-1.4,0.4-2.7,1-4.1c0.8-1.5,1.9-2.7,3.3-3.6c1.2-0.7,2.5-1,4.2-1c0.6,0,1.1,0.1,1.6,0.2c0.5,0.1,1.2,0.3,2,0.6
			c0.5,0.2,0.8,0.3,0.9,0.3s0.3-0.1,0.4-0.2c0.1-0.2,0.2-0.4,0.2-0.8L689.9,39.8L689.9,39.8z"/>
	</g>
</g>
<g id="Слой_4_xA0_Image_1_" opacity="0.3529">
</g>
<g id="тело">
	<rect x="277" y="63.8" fill="#762F21" stroke="#3F403F" stroke-width="0.1" stroke-miterlimit="10" width="0.7" height="2"/>
	<rect x="276.3" y="62.9" fill="#762F21" stroke="#3F403F" stroke-width="0.1" stroke-miterlimit="10" width="1.4" height="1.4"/>
	<path fill="#762F21" stroke="#3F403F" stroke-width="0.1" stroke-miterlimit="10" d="M281.8,69.2c0.1-0.1,0.3-0.2,0.3-0.3
		c0-0.1-0.1-0.2-0.3-0.3c-0.4-0.2-0.8-0.3-1.1-0.3c-1.2-0.1-1.3-0.2-1.6,0c-0.1,0.1-0.5,0.2-0.5,0.5c0,0.3,0.4,0.5,0.5,0.6
		c0.4,0.2,0.5,0.1,1.6,0.1C281.1,69.4,281.4,69.4,281.8,69.2z"/>
	<path fill="#330E09" stroke="#3F403F" stroke-width="0.1" stroke-miterlimit="10" d="M279.4,66.7c0.1,0,0.2,0.5,0.3,0.7
		c0.1,0.2,0.2,0.8,0.1,0.8c-0.1,0-0.1-0.1-0.3-0.1c-0.1,0-0.2,0.1-0.2,0.1c-0.1-0.1-0.1-0.4,0-0.8C279.3,66.8,279.3,66.7,279.4,66.7
		z"/>
	<path fill="#330E09" stroke="#3F403F" stroke-width="0.1" stroke-miterlimit="10" d="M279.7,69.4c0.1,0.1-0.1,0.3-0.1,0.7
		c0,0.2,0,0.3-0.1,0.5c-0.1,0.1-0.1,0.3-0.2,0.3c-0.1,0-0.2-0.3-0.2-0.4c-0.1-0.2-0.1-0.3-0.1-0.5c0-0.5-0.1-0.7,0-0.7
		c0.1-0.1,0.2,0.1,0.3,0.1S279.7,69.4,279.7,69.4z"/>
	<g id="краны">
		<polyline fill="#DCC89E" points="364.3,33 397.2,47.7 397.2,48.4 394.7,48.4 364.3,33.6 364.3,33 364.3,33 		"/>
		<polyline fill="#DCC89E" points="384.9,48.4 364.3,34.4 364.3,33.6 387.9,48.4 384.9,48.4 		"/>
		<polyline fill="#DCC89E" stroke="#40413F" stroke-width="0.25" stroke-miterlimit="10" points="361.2,48.4 361.2,35.9 364.4,35.9 
			365.1,35.9 368.1,45.1 368.1,48.4 		"/>
		<polygon fill="#DCC89E" stroke="#40413F" stroke-width="0.25" stroke-miterlimit="10" points="361.2,49.9 361.2,48.4 397.2,48.4 
			397.2,49.3 391.2,49.9 		"/>
		<rect x="359.9" y="33" fill="#DCC89E" stroke="#40413F" stroke-width="0.25" stroke-miterlimit="10" width="4.4" height="3"/>
		<rect x="360" y="38.7" fill="#DCC89E" stroke="#40413F" stroke-width="0.25" stroke-miterlimit="10" width="1.2" height="2.1"/>
		<polyline fill="#DCC89E" stroke="#40413F" stroke-width="0.25" stroke-miterlimit="10" points="322.3,48.4 322.3,35.9 325.4,35.9 
			326.1,35.9 329.1,45.1 329.1,48.4 		"/>
		<rect x="321" y="38.7" fill="#DCC89E" stroke="#40413F" stroke-width="0.25" stroke-miterlimit="10" width="1.2" height="2.1"/>
		<polyline fill="#DCC89E" points="345.9,49 325.4,35 325.4,34.2 348.9,49 345.9,49 		"/>
		<polygon fill="#DCC89E" points="359.2,49.1 325.4,33.6 325.4,34.2 356.3,49.1 		"/>
		<path fill="#DCC89E" stroke="#40413F" stroke-width="0.25" stroke-miterlimit="10" d="M322.3,49.9v-1.5c12.4,0,24.7,0,37.1-0.1
			c0,0.5,0,1,0,1.5C346.9,49.9,334.6,49.9,322.3,49.9z"/>
		<rect x="320.9" y="33" fill="#DCC89E" stroke="#40413F" stroke-width="0.25" stroke-miterlimit="10" width="4.4" height="3"/>
	</g>
	<g>
		<g opacity="0.73">
			<rect x="286.5" y="42.3" fill="#8E8E8E" width="14.8" height="4"/>
			<rect x="286.5" y="42.3" fill="none" stroke="#8E8E8E" stroke-width="0.2" stroke-miterlimit="10" width="14.8" height="4"/>
		</g>
		<g>
			<rect x="286.2" y="42.1" fill="#F9F9F9" width="14.8" height="4"/>
			<rect x="286.2" y="42.1" fill="none" stroke="#353535" stroke-width="0.2" stroke-miterlimit="10" width="14.8" height="4"/>
		</g>
	</g>
	<g>
		<g opacity="0.73">
			<rect x="289.9" y="37.7" fill="#8E8E8E" width="10.8" height="4.4"/>
			<rect x="289.9" y="37.7" fill="none" stroke="#8E8E8E" stroke-width="0.2" stroke-miterlimit="10" width="10.8" height="4.4"/>
		</g>
		<g>
			<rect x="289.6" y="37.7" fill="#F9F9F9" width="10.8" height="4.4"/>
			<rect x="289.6" y="37.7" fill="none" stroke="#353535" stroke-width="0.2" stroke-miterlimit="10" width="10.8" height="4.4"/>
		</g>
	</g>
	<g>
		<g opacity="0.73">
			<polygon fill="#8E8E8E" points="292.1,33.3 292.1,37.7 300.6,37.7 302.8,33.1 292.1,33.1 			"/>
			<polygon fill="none" stroke="#8E8E8E" stroke-width="0.2" stroke-miterlimit="10" points="292.1,33.3 292.1,37.7 300.6,37.7 
				302.8,33.1 292.1,33.1 			"/>
		</g>
		<g>
			<polygon fill="#F9F9F9" points="291.9,33.3 291.9,37.7 300.4,37.7 302.6,33.1 291.9,33.1 			"/>
			<polygon fill="none" stroke="#353535" stroke-width="0.2" stroke-miterlimit="10" points="291.9,33.3 291.9,37.7 300.4,37.7 
				302.6,33.1 291.9,33.1 			"/>
		</g>
	</g>
	<polygon fill="#2561DD" stroke="#3F3F3F" stroke-width="0.25" stroke-miterlimit="10" points="276.9,50.8 279.4,40.6 283.9,40.6 
		283.9,46.1 282,46.1 279.2,50.8 	"/>
	<g>
		<g opacity="0.73">
			<polygon fill="#8E8E8E" points="301.3,51 279.5,51 282.3,46.3 301.3,46.3 			"/>
			<polygon fill="none" stroke="#8E8E8E" stroke-width="0.2" stroke-miterlimit="10" points="301.3,51 279.5,51 282.3,46.3 
				301.3,46.3 			"/>
		</g>
		<g>
			<polygon fill="#F9F9F9" points="301,50.8 279.2,50.8 282,46.1 301,46.1 			"/>
			<polygon fill="none" stroke="#353535" stroke-width="0.2" stroke-miterlimit="10" points="301,50.8 279.2,50.8 282,46.1 
				301,46.1 			"/>
		</g>
	</g>
	<path fill="#2561DD" stroke="#3F3F3F" stroke-width="0.25" stroke-miterlimit="10" d="M413.9,61.6l8.7-14.6l-31.4,3
		c-0.1,0.6-0.3,3-2.2,5c-2,2.1-4.5,2.3-5.1,2.3c-5.2,0-10.4,0-15.6,0v-7.4h-7.1v7.5h-32c0-2.5,0-5,0-7.5c-2.3,0-4.6,0-7,0
		c0,2.6,0,5.2,0,7.8h-8.6c-0.6,0-3.3,0.1-5.6-2c-2.1-1.9-2.4-4.4-2.5-5c-12.1,0-24.1,0-36.2,0l2.9,10.7"/>
	<path fill="#762F21" stroke="#3F403F" stroke-width="0.25" stroke-miterlimit="10" d="M272.3,61.5
		C272.3,61.5,272.3,61.5,272.3,61.5c-0.1,0.1,5.5,1,7.9,4.5c0.8,1.2,1,3.1,1,3.2c0.2,1,0.1,1.9,0.1,2.5c40.9,0,81.8,0,122.7,0
		c0.9-0.1,2.6-0.5,4.3-1.7c1.5-1.1,2.3-2.4,2.7-3.2c1-1.7,2-3.5,3-5.2C413.9,61.6,413.9,61.6,272.3,61.5z"/>
	<linearGradient id="тень_1_" gradientUnits="userSpaceOnUse" x1="343.0965" y1="81.8922" x2="343.0965" y2="71.6684">
		<stop  offset="0" style="stop-color:#F3F3F3"/>
		<stop  offset="9.985205e-002" style="stop-color:#EDEDED"/>
		<stop  offset="0.2276" style="stop-color:#DDDDDD"/>
		<stop  offset="0.3707" style="stop-color:#C3C3C3"/>
		<stop  offset="0.5249" style="stop-color:#9E9E9E"/>
		<stop  offset="0.688" style="stop-color:#6F6F6F"/>
		<stop  offset="0.8559" style="stop-color:#373737"/>
		<stop  offset="1" style="stop-color:#000000"/>
	</linearGradient>
	<path id="тень" opacity="0.52" fill="url(#тень_1_)" enable-background="new    " d="M272.3,81.9
		C272.3,81.9,272.3,81.9,272.3,81.9c-0.1-0.1,5.5-1,7.9-4.5c0.8-1.3,1-3.1,1-3.2c0.1-1,0.1-1.9-0.1-2.5c40.9,0,81.8,0,122.7-0.1
		c0.9,0.1,2.6,0.5,4.3,1.7c1.5,1.1,2.3,2.4,2.7,3.2c1,1.7,2,3.5,3,5.2C413.9,81.8,413.9,81.8,272.3,81.9z"/>
	<g>
		<g opacity="0.87">
			<path fill="#2A3837" d="M332,67.7l-0.6,2.4h-0.2c-0.1-0.4-0.1-0.7-0.2-0.9c-0.2-0.3-0.4-0.6-0.6-0.8c-0.3-0.2-0.5-0.3-0.8-0.3
				c-0.3,0-0.5,0.1-0.7,0.3c-0.2,0.2-0.3,0.5-0.3,0.7c0,0.3,0.1,0.5,0.2,0.8c0.2,0.3,0.5,0.7,1,1.1c0.4,0.4,0.7,0.8,0.9,1.1
				c0.2,0.3,0.2,0.6,0.2,1c0,0.4-0.1,0.8-0.3,1.1s-0.5,0.6-0.9,0.8c-0.4,0.2-0.8,0.3-1.3,0.3c-0.3,0-0.7-0.1-1.2-0.2
				c-0.5-0.1-0.8-0.2-0.9-0.2c-0.1,0-0.2,0-0.3,0.1c-0.1,0.1-0.2,0.1-0.4,0.2h-0.2l0.7-2.7h0.2c0.1,0.5,0.2,0.9,0.3,1.2
				c0.2,0.4,0.4,0.6,0.7,0.8c0.3,0.2,0.6,0.3,1,0.3s0.7-0.1,0.9-0.4c0.3-0.3,0.4-0.5,0.4-0.8c0-0.3-0.1-0.5-0.2-0.8
				c-0.2-0.3-0.5-0.6-0.9-1.1c-0.5-0.5-0.8-0.9-1-1.3c-0.2-0.3-0.2-0.6-0.2-0.9c0-0.5,0.2-1,0.6-1.4c0.4-0.4,1-0.6,1.7-0.6
				c0.3,0,0.7,0.1,1.2,0.2c0.3,0.1,0.5,0.1,0.6,0.1s0.2,0,0.3-0.1c0.1-0.1,0.2-0.2,0.3-0.3L332,67.7L332,67.7z"/>
			<path fill="#2A3837" d="M338,67.9h2.4l-0.1,0.2c-0.3,0-0.5,0.1-0.7,0.2c-0.3,0.2-0.4,0.5-0.6,0.9l-1,3.3c-0.3,1-0.7,1.7-1.2,2.1
				c-0.5,0.4-1.2,0.6-1.9,0.6c-0.5,0-0.9-0.1-1.2-0.2c-0.3-0.2-0.6-0.3-0.8-0.4s-0.3-0.4-0.4-0.6c-0.1-0.3-0.1-0.5-0.1-0.6
				c0-0.3,0.1-0.6,0.2-1.1l0.9-3.2c0.1-0.3,0.1-0.5,0.1-0.6c0-0.2-0.1-0.3-0.2-0.3c-0.1-0.1-0.4-0.1-0.7-0.2l0.1-0.2h3.6l-0.1,0.2
				c-0.4,0-0.6,0.1-0.8,0.2s-0.4,0.5-0.5,0.9l-0.9,3.2c-0.2,0.5-0.2,1-0.2,1.3s0.1,0.6,0.4,0.8c0.3,0.2,0.6,0.3,1,0.3s0.7-0.1,1-0.2
				c0.3-0.2,0.5-0.4,0.7-0.6c0.3-0.4,0.5-0.8,0.6-1.4l0.9-3.3c0.1-0.2,0.1-0.4,0.1-0.5c0-0.2-0.1-0.4-0.3-0.5
				c-0.1-0.1-0.4-0.1-0.7-0.1L338,67.9z"/>
			<path fill="#2A3837" d="M346.9,68.1l-5.5,6.6h0.4c0.9,0,1.6-0.1,2.1-0.4s1-0.7,1.4-1.3h0.2l-0.8,2h-5.6v-0.2l5.5-6.6H344
				c-0.9,0-1.5,0.1-1.9,0.3c-0.4,0.2-0.8,0.6-1.1,1.1h-0.2l0.6-1.8h5.4L346.9,68.1L346.9,68.1z"/>
			<path fill="#2A3837" d="M347.6,68.1l0.1-0.2h3.5l-0.1,0.2c-0.3,0-0.6,0.1-0.7,0.2s-0.3,0.5-0.5,0.9l-1.3,4.6
				c-0.1,0.3-0.2,0.6-0.2,0.7c0,0.2,0.1,0.2,0.2,0.3c0.2,0.1,0.4,0.2,0.7,0.2l-0.1,0.2h-3.6l0.1-0.2c0.4,0,0.6-0.1,0.8-0.2
				c0.2-0.2,0.3-0.5,0.5-0.9l1.3-4.6c0.1-0.3,0.1-0.5,0.1-0.7s-0.1-0.3-0.2-0.3C348.2,68.2,348,68.1,347.6,68.1z"/>
			<path fill="#2A3837" d="M354.5,68.3l-0.8,2.8h0.3c0.7,0,1.1-0.1,1.4-0.3c0.3-0.2,0.6-0.5,0.8-0.9h0.2l-0.8,2.8h-0.2
				c0.1-0.2,0.1-0.4,0.1-0.5c0-0.2-0.1-0.4-0.2-0.5c-0.1-0.1-0.3-0.2-0.5-0.3c-0.1-0.1-0.4-0.1-0.8-0.1h-0.4l-0.7,2.4
				c-0.1,0.2-0.1,0.4-0.1,0.5s0.1,0.2,0.1,0.2c0.1,0.1,0.3,0.1,0.7,0.1c0.6,0,1.2-0.2,1.7-0.4c0.6-0.3,1-0.7,1.4-1.2h0.2l-0.8,2H350
				l0.1-0.2c0.4,0,0.6-0.1,0.8-0.2c0.2-0.2,0.3-0.5,0.5-0.9l1.4-4.6c0.1-0.3,0.1-0.5,0.1-0.6s-0.1-0.3-0.2-0.3
				c-0.1-0.1-0.3-0.1-0.7-0.2l0.1-0.2h5.7l-0.5,1.8h-0.2c0-0.4-0.1-0.6-0.2-0.8c-0.2-0.2-0.4-0.4-0.6-0.5c-0.3-0.1-0.7-0.2-1.2-0.2
				h-0.7V68.3z"/>
			<path fill="#2A3837" d="M363.6,75.2l-0.9,0.9c0.4-0.1,0.7-0.1,0.9-0.1c0.3,0,0.8,0.1,1.3,0.2c0.6,0.2,1,0.2,1.3,0.2
				c0.4,0,0.7-0.1,1-0.2c0.2-0.1,0.4-0.2,0.6-0.4l0.2,0.2c-0.4,0.5-0.8,0.8-1.3,1c-0.5,0.3-1.1,0.4-1.8,0.4c-0.4,0-0.9-0.1-1.5-0.2
				c-0.6-0.2-1-0.2-1.3-0.2c-0.3,0-0.6,0.1-0.8,0.1l-0.1-0.2l2-1.7c-0.5-0.1-0.8-0.2-1.1-0.4c-0.4-0.2-0.6-0.6-0.8-0.9
				c-0.2-0.4-0.3-0.8-0.3-1.2c0-0.8,0.2-1.6,0.7-2.4c0.5-0.8,1.1-1.4,1.8-1.9c0.8-0.5,1.5-0.7,2.2-0.7c0.4,0,0.9,0.1,1.2,0.3
				c0.4,0.2,0.7,0.5,0.9,0.9c0.2,0.4,0.3,0.8,0.3,1.2c0,0.6-0.2,1.3-0.5,1.9c-0.3,0.7-0.7,1.3-1.3,1.7s-1.1,0.9-1.6,1.1
				C364.5,75.1,364.1,75.2,363.6,75.2z M365.5,68.2c-0.3,0-0.5,0.1-0.7,0.2c-0.2,0.1-0.4,0.3-0.6,0.5c-0.2,0.3-0.4,0.6-0.7,1
				c-0.3,0.5-0.4,1-0.6,1.8c-0.2,0.8-0.3,1.4-0.3,1.9c0,0.4,0.1,0.8,0.3,1c0.2,0.2,0.4,0.3,0.7,0.3c0.4,0,0.7-0.2,1-0.4
				c0.6-0.5,1-1.3,1.3-2.3c0.4-1,0.5-1.9,0.5-2.6c0-0.5-0.1-0.8-0.3-1.1C366,68.3,365.8,68.2,365.5,68.2z"/>
		</g>
		<g>
			<g>
				<path fill="#F7F7F7" d="M331.5,67.4l-0.6,2.4h-0.2c-0.1-0.4-0.1-0.7-0.2-0.9c-0.2-0.3-0.4-0.6-0.6-0.8c-0.3-0.2-0.5-0.3-0.8-0.3
					c-0.3,0-0.5,0.1-0.7,0.3c-0.2,0.2-0.3,0.5-0.3,0.7c0,0.3,0.1,0.5,0.2,0.8c0.2,0.3,0.5,0.7,1,1.1c0.4,0.4,0.7,0.8,0.9,1.1
					s0.2,0.6,0.2,1c0,0.4-0.1,0.8-0.3,1.1s-0.5,0.6-0.9,0.8c-0.4,0.2-0.8,0.3-1.3,0.3c-0.3,0-0.7-0.1-1.2-0.2
					c-0.5-0.1-0.8-0.2-0.9-0.2c-0.1,0-0.2,0-0.3,0.1c-0.1,0.1-0.2,0.1-0.4,0.2h-0.2l0.7-2.7h0.2c0.1,0.5,0.2,0.9,0.3,1.2
					s0.4,0.6,0.7,0.8c0.3,0.2,0.6,0.3,1,0.3c0.4,0,0.7-0.1,0.9-0.4c0.3-0.3,0.4-0.5,0.4-0.8c0-0.3-0.1-0.5-0.2-0.8
					c-0.2-0.3-0.5-0.6-0.9-1.1c-0.5-0.5-0.8-0.9-1-1.3c-0.2-0.3-0.2-0.6-0.2-0.9c0-0.5,0.2-1,0.6-1.4c0.4-0.4,1-0.6,1.7-0.6
					c0.3,0,0.7,0.1,1.2,0.2c0.3,0.1,0.5,0.1,0.6,0.1c0.1,0,0.2,0,0.3-0.1c0.1-0.1,0.2-0.2,0.3-0.3L331.5,67.4L331.5,67.4z"/>
				<path fill="#F7F7F7" d="M337.6,67.6h2.4l-0.1,0.2c-0.3,0-0.5,0.1-0.7,0.2c-0.3,0.2-0.4,0.5-0.6,0.9l-1,3.3
					c-0.3,1-0.7,1.7-1.2,2.1c-0.5,0.4-1.2,0.6-1.9,0.6c-0.5,0-0.9-0.1-1.2-0.2c-0.3-0.2-0.6-0.3-0.8-0.4c-0.2-0.2-0.3-0.4-0.4-0.6
					c-0.1-0.3-0.1-0.5-0.1-0.6c0-0.3,0.1-0.6,0.2-1.1l0.9-3.2c0.1-0.3,0.1-0.5,0.1-0.6c0-0.2-0.1-0.3-0.2-0.3s-0.4-0.1-0.7-0.2
					l0.1-0.2h3.6l-0.1,0.2c-0.4,0-0.6,0.1-0.8,0.2s-0.4,0.5-0.5,0.9L334,72c-0.2,0.5-0.2,1-0.2,1.3s0.1,0.6,0.4,0.8
					c0.3,0.2,0.6,0.3,1,0.3c0.4,0,0.7-0.1,1-0.2c0.3-0.2,0.5-0.4,0.7-0.6c0.3-0.4,0.5-0.8,0.6-1.4l0.9-3.3c0.1-0.2,0.1-0.4,0.1-0.5
					c0-0.2-0.1-0.4-0.3-0.5c-0.1-0.1-0.4-0.1-0.7-0.1L337.6,67.6z"/>
				<path fill="#F7F7F7" d="M346.4,67.8l-5.5,6.6h0.4c0.9,0,1.6-0.1,2.1-0.4c0.5-0.3,1-0.7,1.4-1.3h0.2l-0.8,2h-5.6v-0.2l5.5-6.6
					h-0.7c-0.9,0-1.5,0.1-1.9,0.3c-0.4,0.2-0.8,0.6-1.1,1.1h-0.2l0.6-1.8h5.4L346.4,67.8L346.4,67.8z"/>
				<path fill="#F7F7F7" d="M347.2,67.8l0.1-0.2h3.5l-0.1,0.2c-0.3,0-0.6,0.1-0.7,0.2s-0.3,0.5-0.5,0.9l-1.3,4.6
					c-0.1,0.3-0.2,0.6-0.2,0.7c0,0.2,0.1,0.2,0.2,0.3c0.2,0.1,0.4,0.2,0.7,0.2l-0.1,0.2h-3.6l0.1-0.2c0.4,0,0.6-0.1,0.8-0.2
					c0.2-0.2,0.3-0.5,0.5-0.9l1.3-4.6c0.1-0.3,0.1-0.5,0.1-0.7s-0.1-0.3-0.2-0.3C347.8,67.9,347.6,67.9,347.2,67.8z"/>
				<path fill="#F7F7F7" d="M354,68l-0.8,2.8h0.3c0.7,0,1.1-0.1,1.4-0.3c0.3-0.2,0.6-0.5,0.8-0.9h0.2l-0.8,2.8h-0.2
					c0.1-0.2,0.1-0.4,0.1-0.5c0-0.2-0.1-0.4-0.2-0.5c-0.1-0.1-0.3-0.2-0.5-0.3c-0.1-0.1-0.4-0.1-0.8-0.1h-0.4l-0.7,2.4
					c-0.1,0.2-0.1,0.4-0.1,0.5c0,0.1,0.1,0.2,0.1,0.2c0.1,0.1,0.3,0.1,0.7,0.1c0.6,0,1.2-0.2,1.7-0.4c0.6-0.3,1-0.7,1.4-1.2h0.2
					l-0.8,2h-6.2l0.1-0.2c0.4,0,0.6-0.1,0.8-0.2c0.2-0.2,0.3-0.5,0.5-0.9l1.4-4.6c0.1-0.3,0.1-0.5,0.1-0.6s-0.1-0.3-0.2-0.3
					c-0.1-0.1-0.3-0.1-0.7-0.2l0.1-0.2h5.7l-0.5,1.8h-0.2c0-0.4-0.1-0.6-0.2-0.8c-0.2-0.2-0.4-0.4-0.6-0.5c-0.3-0.1-0.7-0.2-1.2-0.2
					H354V68z"/>
				<path fill="#F7F7F7" d="M363.1,75l-0.9,0.9c0.4-0.1,0.7-0.1,0.9-0.1c0.3,0,0.8,0.1,1.3,0.2c0.6,0.2,1,0.2,1.3,0.2
					c0.4,0,0.7-0.1,1-0.2c0.2-0.1,0.4-0.2,0.6-0.4l0.2,0.2c-0.4,0.5-0.8,0.8-1.3,1c-0.5,0.3-1.1,0.4-1.8,0.4c-0.4,0-0.9-0.1-1.5-0.2
					s-1-0.2-1.3-0.2c-0.3,0-0.6,0.1-0.8,0.1l-0.1-0.2l2-1.7c-0.5-0.1-0.8-0.2-1.1-0.4c-0.4-0.2-0.6-0.6-0.8-0.9
					c-0.2-0.4-0.3-0.8-0.3-1.2c0-0.8,0.2-1.6,0.7-2.4c0.5-0.8,1.1-1.4,1.8-1.9c0.8-0.5,1.5-0.7,2.2-0.7c0.4,0,0.9,0.1,1.2,0.3
					c0.4,0.2,0.7,0.5,0.9,0.9s0.3,0.8,0.3,1.2c0,0.6-0.2,1.3-0.5,1.9s-0.7,1.3-1.3,1.7s-1.1,0.9-1.6,1.1
					C364.1,74.9,363.7,75,363.1,75z M365.1,67.9c-0.3,0-0.5,0.1-0.7,0.2c-0.2,0.1-0.4,0.3-0.6,0.5s-0.4,0.6-0.7,1
					c-0.3,0.5-0.4,1-0.6,1.8c-0.2,0.8-0.3,1.4-0.3,1.9c0,0.4,0.1,0.8,0.3,1c0.2,0.2,0.4,0.3,0.7,0.3c0.4,0,0.7-0.2,1-0.4
					c0.6-0.5,1-1.3,1.3-2.3c0.4-1,0.5-1.9,0.5-2.6c0-0.5-0.1-0.8-0.3-1.1C365.6,68,365.3,67.9,365.1,67.9z"/>
			</g>
		</g>
	</g>
	<path fill="#2561DD" d="M386.9,54.3"/>
	<path fill="#2561DD" d="M413.9,61.6"/>
	<polygon fill="#DCC89E" stroke="#40413F" stroke-width="0.25" stroke-miterlimit="10" points="279.4,40.6 283.9,40.6 283.9,37.7 
		280.1,37.7 	"/>
	<polygon fill="#474242" stroke="#2B2B2B" stroke-width="0.25" stroke-miterlimit="10" points="280.1,37.7 283.9,37.7 283.9,34.6 
		280.7,34.6 	"/>
	<polygon fill="#DCC89E" points="291.9,19.8 291.9,33.1 292.3,33 292.3,21.1 292.3,19.8 	"/>
	<polygon fill="#DCC89E" points="293.1,21 293.1,22 292.3,22 292.3,21.1 	"/>
	<polygon fill="#DCC89E" points="292.1,23.1 293.4,23.1 293.4,24 292.3,24 	"/>
	<polygon fill="#DCC89E" points="292.3,29.1 296.4,29.1 292.3,31.5 	"/>
	<g>
		<g opacity="0.73">
			<polygon fill="#8E8E8E" points="301.3,31.4 292.1,33.4 302.8,33.4 			"/>
			<polygon fill="none" stroke="#8E8E8E" stroke-width="0.2" stroke-miterlimit="10" points="301.3,31.4 292.1,33.4 302.8,33.4 			
				"/>
		</g>
		<g>
			<polygon fill="#F4F4F4" points="301,31.1 291.9,33.1 302.6,33.1 			"/>
			<polygon fill="none" stroke="#353535" stroke-width="0.2" stroke-miterlimit="10" points="301,31.1 291.9,33.1 302.6,33.1 			"/>
		</g>
	</g>
	<path fill="#4C0A0A" d="M411.4,52.9c0.2-0.2,0.8,0.1,1,0.4c0.1,0.1,0.1,0.2,0.1,0.3c0,0.1-0.1,0.2-0.1,0.3c0,0.2,0,0.2,0,0.4
		c0,0.1,0,0.3-0.1,0.5c-0.1,0.2-0.2,0.2-0.2,0.3c0,0.1,0.1,0.2,0.2,0.2c0.1,0,0.1-0.1,0.1-0.1s0.2-0.2,0.3-0.2
		c0.1,0,0.2,0.1,0.2,0.2c0,0.1,0,0.1-0.1,0.2c-0.1,0.2-0.2,0.2-0.3,0.4c-0.1,0.1-0.1,0.1-0.1,0.2c0,0.1,0.1,0.2,0.1,0.2
		c0,0.1-0.2,0.1-0.5,0.2c-0.2,0.1-0.2,0.2-0.3,0.2c-0.2,0.1-0.2,0.1-0.4,0.1c-0.3,0.1-0.4,0.3-0.5,0.3c-0.1-0.1,0-0.1-0.1-0.2
		c-0.1-0.1-0.1,0-0.3,0s-0.2-0.1-0.3,0c-0.1,0-0.1,0-0.2,0c-0.1,0-0.1,0-0.1,0c-0.1-0.1-0.1-0.2-0.1-0.2c0.1-0.1,0.2-0.2,0.3-0.2
		c0.2-0.1,0.2,0,0.3-0.1c0.1-0.1,0.1-0.2,0-0.2c-0.1-0.1-0.2-0.1-0.3-0.1c-0.2-0.1-0.3-0.1-0.4-0.2c-0.2-0.1-0.2-0.2-0.4-0.3
		c-0.1-0.1-0.1-0.1-0.2-0.1c-0.2-0.1-0.3-0.3-0.3-0.4c-0.2-0.3-0.1-0.9,0.2-1c0.2-0.1,0.4,0.1,0.5,0.2c0.1,0.1,0.4,0.3,0.4,0.5
		c0,0.1-0.1,0.2,0,0.3c0.1,0.2,0.2,0.3,0.3,0.4c0.2,0.1,0.3-0.1,0.6,0.1c0.1,0.1,0.1,0.1,0.2,0.1c0.1,0,0.2,0,0.2-0.1
		c0.1,0,0.1-0.1,0.2-0.2c0.1-0.1,0-0.2,0-0.3c0-0.2,0.2-0.2,0.3-0.4c0.1-0.1,0.2-0.3,0.1-0.4c-0.1-0.1-0.1-0.1-0.2-0.1
		c0,0-0.2-0.1-0.3-0.3c-0.1-0.2-0.1-0.3-0.1-0.6C411.3,53.1,411.3,53,411.4,52.9z"/>
	<g>
		<path opacity="0.43" fill="#1259A0" enable-background="new    " d="M391.4,50.1l31-3l-2.1,3.7l-29.9,2.7c0.3-0.5,0.6-1.2,0.8-2.1
			C391.3,50.9,391.3,50.5,391.4,50.1z"/>
	</g>
	<g>
		<rect x="361.4" y="50.1" opacity="0.43" fill="#1259A0" enable-background="new    " width="6.8" height="2.7"/>
	</g>
	<g>
		<rect x="322.5" y="50.2" opacity="0.43" fill="#1259A0" enable-background="new    " width="6.6" height="2.7"/>
	</g>
	<g>
		<path opacity="0.43" fill="#1259A0" enable-background="new    " d="M269.6,51h35.8c0.1,0.4,0.2,0.9,0.4,1.4
			c0.2,0.5,0.4,1,0.5,1.3c-5.8,0-30.1,0-35.9,0h-0.1C270.1,52.8,269.8,51.9,269.6,51z"/>
	</g>
	<g>
		<rect x="360.1" y="38.8" opacity="0.25" fill="#CC9900" enable-background="new    " width="0.9" height="0.8"/>
	</g>
	<g>
		<rect x="363" y="33.1" opacity="0.25" fill="#CC9900" enable-background="new    " width="1.1" height="2.7"/>
	</g>
	<g>
		<polyline opacity="0.25" fill="#CC9900" enable-background="new    " points="363,36.1 364.9,36.1 367.9,45.1 367.9,48.2 
			365.5,48.2 365.5,45.1 		"/>
	</g>
	<g>
		<rect x="321.2" y="38.8" opacity="0.25" fill="#CC9900" enable-background="new    " width="0.9" height="0.8"/>
	</g>
	<g>
		<polyline opacity="0.25" fill="#CC9900" enable-background="new    " points="324,36.1 325.9,36.1 328.9,45.1 328.9,48.2 
			326.4,48.2 326.4,45.1 		"/>
	</g>
	<rect x="274" y="64.9" fill="#762F21" stroke="#3F403F" stroke-width="0.1" stroke-miterlimit="10" width="3.8" height="6.6"/>
	<g>
		<rect x="324" y="33.1" opacity="0.25" fill="#CC9900" enable-background="new    " width="1.1" height="2.7"/>
	</g>
	<g>
		<polygon opacity="0.43" fill="#1259A0" enable-background="new    " points="279.1,50.7 281.5,40.7 283.7,40.7 283.7,45.9 
			282,45.9 		"/>
	</g>
	<g>
		<polygon opacity="0.25" fill="#CC9900" enable-background="new    " points="281.6,40.5 283.7,40.5 283.7,37.7 282.2,37.7 		"/>
	</g>
</g>
<g id="мачта">
	<line fill="none" stroke="#DBC79D" stroke-width="0.75" stroke-miterlimit="10" x1="397.5" y1="35.9" x2="397.5" y2="49.3"/>
	<line fill="none" stroke="#3F403F" stroke-width="0.25" stroke-miterlimit="10" x1="397.8" y1="35.8" x2="397.8" y2="49.3"/>
	<line fill="none" stroke="#3F403F" stroke-width="0.25" stroke-miterlimit="10" x1="397.8" y1="35.9" x2="397.3" y2="35.9"/>
	<line fill="none" stroke="#3F403F" stroke-width="0.5" stroke-miterlimit="10" x1="397.4" y1="30.4" x2="398.4" y2="30.4"/>
	<line fill="none" stroke="#3F403F" stroke-width="0.5" stroke-miterlimit="10" x1="397.3" y1="28" x2="397.3" y2="49.3"/>
</g>
<g id="окна_и_отверстия">
	<polygon fill="#E4F6F9" stroke="#474242" stroke-width="0.1" stroke-miterlimit="10" points="293.2,33.9 302.2,33.9 301.4,35.4 
		293.2,35.4 	"/>
	<line fill="none" stroke="#474242" stroke-width="0.1" stroke-miterlimit="10" x1="295" y1="33.9" x2="295" y2="35.4"/>
	<line fill="none" stroke="#474242" stroke-width="0.1" stroke-miterlimit="10" x1="296.7" y1="33.9" x2="296.7" y2="35.4"/>
	<line fill="none" stroke="#474242" stroke-width="0.1" stroke-miterlimit="10" x1="298.3" y1="33.9" x2="298.3" y2="35.4"/>
	<line fill="none" stroke="#474242" stroke-width="0.1" stroke-miterlimit="10" x1="300" y1="33.9" x2="300" y2="35.4"/>
	<rect x="293.7" y="38.6" fill="#E4F6F9" stroke="#474242" stroke-width="0.1" stroke-miterlimit="10" width="1.3" height="1.5"/>
	<rect x="297.7" y="38.6" fill="#E4F6F9" stroke="#474242" stroke-width="0.1" stroke-miterlimit="10" width="1.2" height="1.5"/>
	<line fill="none" stroke="#474242" stroke-width="0.1" stroke-miterlimit="10" x1="297" y1="37.7" x2="297" y2="42.1"/>
	<rect x="294.3" y="42.7" fill="#E4F6F9" stroke="#474242" stroke-width="0.1" stroke-miterlimit="10" width="2.8" height="1.4"/>
	<rect x="290.3" y="42.7" fill="#E4F6F9" stroke="#474242" stroke-width="0.1" stroke-miterlimit="10" width="2.8" height="1.4"/>
	<rect x="291.2" y="47.5" fill="#E4F6F9" stroke="#474242" stroke-width="0.1" stroke-miterlimit="10" width="2.8" height="1.4"/>
	<rect x="285.2" y="47.5" fill="#E4F6F9" stroke="#474242" stroke-width="0.1" stroke-miterlimit="10" width="2.8" height="1.4"/>
	<rect x="289.6" y="50.8" fill="#F9F9F9" stroke="#474242" stroke-width="0.25" stroke-miterlimit="10" width="13.6" height="2.8"/>
	<line fill="none" stroke="#474242" stroke-width="0.25" stroke-miterlimit="10" x1="289.6" y1="51.5" x2="303.2" y2="51.5"/>
	<line fill="none" stroke="#474242" stroke-width="0.25" stroke-miterlimit="10" x1="289.6" y1="52.2" x2="303.2" y2="52.2"/>
	<line fill="none" stroke="#474242" stroke-width="0.25" stroke-miterlimit="10" x1="289.6" y1="52.8" x2="303.2" y2="52.8"/>
	<circle fill="#FFFFFF" cx="284.8" cy="52.2" r="0.6"/>
	<circle fill="#FFFFFF" cx="274" cy="52.2" r="0.6"/>
	<circle fill="#FFFFFF" cx="344.8" cy="59" r="0.6"/>
	<circle fill="#FFFFFF" cx="395.1" cy="50.9" r="0.6"/>
	<circle fill="#FFFFFF" cx="401" cy="50.6" r="0.6"/>
</g>
</svg>
